<?xml version="1.0"?>
<svg width="1310" height="1504" xmlns="http://www.w3.org/2000/svg" xmlns:svg="http://www.w3.org/2000/svg" preserveAspectRatio="xMidYMid meet" version="1.0">
 <g class="layer">
  <title>Layer 1</title>
  <g fill="#a05822" id="svg_1" transform="matrix(0.1 0 0 -0.1 0 0)">
   <path d="m6432,-103c-56,-56 -102,-108 -102,-115c0,-6 -6,-12 -13,-12c-7,0 -28,-16 -47,-35c-19,-19 -39,-35 -44,-35c-6,-1 -29,-19 -51,-40c-22,-22 -44,-40 -49,-40c-5,0 -26,-17 -47,-37c-20,-21 -43,-39 -51,-41c-7,-2 -22,-12 -34,-23c-11,-10 -24,-19 -29,-19c-4,0 -22,-15 -40,-32c-18,-18 -50,-42 -71,-53c-21,-11 -48,-28 -58,-37c-11,-10 -24,-18 -28,-18c-5,0 -18,-9 -30,-20c-12,-11 -27,-20 -34,-20c-6,0 -14,-7 -18,-15c-3,-8 -12,-12 -21,-9c-8,3 -15,1 -15,-5c0,-6 -12,-17 -27,-24c-16,-6 -37,-20 -47,-29c-11,-10 -26,-18 -33,-18c-7,0 -13,-4 -13,-10c0,-5 -9,-10 -20,-10c-11,0 -20,-4 -20,-8c0,-5 -12,-15 -27,-23c-16,-8 -30,-16 -33,-19c-12,-12 -51,-30 -65,-30c-8,0 -15,-4 -15,-8c0,-5 -12,-15 -27,-23c-16,-8 -30,-16 -33,-19c-12,-12 -51,-30 -65,-30c-8,0 -15,-4 -15,-10c0,-5 -7,-10 -15,-10c-9,0 -25,-9 -37,-20c-12,-11 -28,-20 -35,-20c-7,0 -13,-4 -13,-10c0,-5 -9,-10 -20,-10c-11,0 -20,-4 -20,-10c0,-5 -9,-10 -20,-10c-11,0 -20,-4 -20,-10c0,-5 -9,-10 -19,-10c-24,0 -36,-28 -13,-32c9,-2 -5,-4 -32,-4c-29,-1 -52,-6 -54,-12c-2,-7 -15,-12 -28,-12c-14,0 -34,-9 -46,-20c-12,-11 -30,-20 -40,-20c-10,0 -18,-7 -18,-15c0,-8 5,-15 12,-15c6,0 8,-3 5,-7c-4,-3 -19,0 -34,8c-20,11 -27,11 -30,2c-3,-7 -13,-13 -24,-13c-10,0 -19,-4 -19,-10c0,-5 -7,-10 -15,-10c-9,0 -15,-10 -16,-22c0,-13 -3,-17 -6,-10c-7,17 -43,15 -43,-3c0,-11 -8,-13 -30,-8c-23,4 -30,2 -30,-10c0,-10 -6,-13 -20,-10c-11,3 -20,0 -20,-6c0,-6 -7,-11 -16,-11c-8,0 -22,-6 -30,-14c-7,-8 -32,-17 -54,-21c-22,-4 -40,-11 -40,-16c0,-5 -13,-9 -30,-9c-16,0 -30,-4 -30,-10c0,-5 -9,-10 -20,-10c-11,0 -20,-4 -20,-10c0,-5 -9,-10 -21,-10c-16,0 -19,-5 -15,-22c3,-13 3,-17 0,-10c-7,14 -64,17 -64,2c0,-5 -13,-10 -30,-10c-16,0 -30,-4 -30,-10c0,-5 -9,-10 -20,-10c-11,0 -20,-4 -20,-10c0,-5 -13,-10 -30,-10c-16,0 -30,-4 -30,-10c0,-5 -13,-10 -30,-10c-16,0 -30,-3 -30,-7c0,-12 -51,-33 -77,-33c-13,0 -23,-4 -23,-10c0,-5 -9,-10 -20,-10c-11,0 -20,-7 -20,-15c0,-12 -8,-14 -40,-9c-27,4 -40,3 -40,-5c0,-6 -13,-11 -30,-11c-16,0 -30,-4 -30,-10c0,-5 -19,-10 -42,-10c-24,0 -70,-12 -103,-25c-33,-14 -68,-25 -77,-25c-9,0 -20,-4 -23,-10c-3,-5 -19,-10 -34,-10c-16,0 -34,-7 -41,-15c-7,-8 -23,-15 -36,-15c-13,0 -24,-4 -24,-8c0,-12 -70,-32 -109,-32c-17,0 -31,-4 -31,-10c0,-5 -13,-10 -30,-10c-20,0 -30,-5 -30,-15c0,-11 -7,-14 -25,-9c-17,4 -25,2 -25,-7c0,-11 -3,-11 -11,1c-8,11 -12,12 -16,3c-2,-7 -20,-13 -38,-13c-19,0 -37,-4 -40,-10c-3,-5 -24,-10 -46,-10c-21,0 -39,-4 -39,-9c0,-5 -30,-12 -67,-16c-38,-4 -72,-10 -78,-15c-5,-4 -36,-11 -67,-14c-32,-4 -58,-12 -58,-17c0,-5 -16,-9 -36,-9c-40,0 -121,-17 -146,-31c-10,-5 -29,-9 -43,-9c-14,0 -25,-4 -25,-9c0,-5 -28,-11 -63,-14c-76,-7 -130,-18 -137,-26c-7,-9 -141,-31 -190,-31c-21,0 -41,-4 -44,-8c-5,-8 -117,-24 -261,-37c-27,-2 -93,-11 -145,-19c-52,-8 -123,-15 -157,-15c-34,-1 -63,-6 -65,-11c-2,-6 -37,-11 -83,-11c-44,0 -84,-4 -90,-9c-5,-4 -116,-10 -245,-14c-396,-10 -450,-15 -477,-42l-22,-22l9,-664c5,-365 10,-897 10,-1183c0,-286 5,-680 10,-875c5,-195 11,-868 15,-1495c3,-627 8,-1187 11,-1245c3,-58 14,-138 25,-177c10,-40 19,-91 19,-113c0,-22 5,-40 10,-40c6,0 10,-30 10,-69c0,-39 5,-73 10,-76c6,-3 10,-23 10,-44c0,-20 4,-41 9,-47c4,-5 14,-48 21,-96c7,-49 17,-88 22,-88c4,0 8,-18 8,-40c0,-22 5,-40 10,-40c6,0 10,-18 10,-40c0,-22 4,-40 9,-40c9,0 17,-33 27,-117c4,-24 10,-43 15,-43c5,0 9,-18 9,-40c0,-22 5,-40 10,-40c6,0 10,-18 10,-40c0,-22 4,-40 8,-40c4,0 14,-27 21,-60c8,-33 17,-60 22,-60c5,0 9,-18 9,-40c0,-22 5,-40 10,-40c6,0 10,-13 10,-30c0,-16 5,-30 10,-30c6,0 10,-8 10,-18c0,-11 7,-33 16,-50c8,-18 13,-36 9,-42c-3,-5 -1,-10 4,-10c6,0 11,-13 11,-30c0,-16 5,-30 10,-30c6,0 10,-13 10,-30c0,-16 5,-30 10,-30c6,0 10,-13 10,-30c0,-16 5,-30 10,-30c6,0 10,-9 10,-20c0,-11 5,-20 10,-20c6,0 10,-14 10,-31c0,-32 39,-129 52,-129c5,0 8,-13 8,-30c0,-16 5,-30 10,-30c6,0 10,-9 10,-20c0,-13 7,-20 19,-20c11,0 23,-4 26,-10c3,-5 -1,-10 -9,-10c-9,0 -16,-9 -16,-20c0,-11 5,-20 10,-20c6,0 10,-9 10,-20c0,-11 5,-20 10,-20c6,0 10,-9 10,-20c0,-11 5,-20 10,-20c6,0 10,-9 10,-20c0,-11 5,-20 10,-20c6,0 10,-13 10,-30c0,-16 5,-30 10,-30c6,0 10,-9 10,-20c0,-11 5,-20 10,-20c6,0 10,-10 10,-22c0,-13 9,-34 20,-48c11,-14 20,-31 20,-37c0,-7 9,-13 20,-13c22,0 27,-15 8,-24c-10,-5 -10,-7 0,-12c6,-3 12,-14 12,-25c0,-10 5,-19 10,-19c6,0 10,-9 10,-20c0,-11 5,-20 10,-20c6,0 10,-7 10,-15c0,-8 6,-15 14,-15c9,0 12,-8 8,-25c-2,-15 0,-25 7,-25c6,0 11,-9 11,-20c0,-11 5,-20 10,-20c6,0 10,-9 10,-20c0,-11 5,-20 10,-20c6,0 10,-9 10,-20c0,-11 5,-20 10,-20c6,0 10,-9 10,-20c0,-11 5,-20 10,-20c6,0 10,-7 10,-15c0,-9 9,-25 20,-37c11,-12 20,-28 20,-35c0,-7 5,-13 10,-13c6,0 10,-7 10,-15c0,-9 9,-25 20,-37c11,-12 20,-28 20,-35c0,-7 11,-13 25,-13c14,0 25,-4 25,-10c0,-5 -7,-10 -15,-10c-20,0 -19,-7 5,-32c11,-12 20,-28 20,-35c0,-7 5,-13 10,-13c6,0 10,-9 10,-20c0,-11 4,-20 8,-20c5,0 15,-12 23,-27c8,-16 22,-37 31,-47c10,-11 18,-24 18,-28c0,-5 5,-14 11,-21c5,-7 19,-25 29,-42c40,-62 45,-69 63,-89c9,-11 17,-26 17,-33c0,-7 4,-13 8,-13c5,0 15,-12 23,-27c8,-16 26,-41 41,-58c16,-16 28,-36 28,-44c0,-7 6,-11 14,-8c9,4 16,-4 20,-24c3,-17 24,-49 46,-72c22,-23 40,-46 40,-52c1,-5 19,-28 40,-50c22,-22 40,-44 40,-48c0,-4 9,-17 20,-29c11,-12 20,-28 20,-35c0,-7 7,-13 15,-13c8,0 15,-6 15,-13c0,-7 16,-28 35,-47c19,-19 35,-39 35,-46c0,-15 28,-26 42,-17c7,4 9,-1 6,-14c-4,-16 7,-33 43,-69c27,-27 49,-53 49,-58c0,-17 355,-366 368,-361c7,2 12,-3 12,-13c0,-25 86,-108 93,-90c3,8 6,5 6,-8c1,-20 178,-204 197,-204c5,0 32,-22 59,-50c28,-27 55,-49 60,-50c6,0 43,-32 83,-71c52,-51 80,-72 98,-72c15,0 21,-3 15,-6c-11,-7 49,-71 66,-71c5,0 26,-18 48,-40c22,-21 45,-39 51,-40c6,0 29,-18 52,-40c22,-22 44,-40 49,-40c4,0 22,-14 40,-30c18,-17 36,-30 40,-30c4,0 22,-14 40,-30c18,-17 36,-30 41,-30c5,0 17,-9 27,-20c10,-11 24,-20 31,-20c7,0 11,-6 8,-14c-3,-8 5,-17 23,-24c15,-6 39,-21 53,-34c14,-12 37,-29 53,-37c15,-8 27,-18 27,-23c0,-4 6,-8 13,-8c7,0 23,-9 35,-20c12,-11 26,-20 31,-20c6,0 23,-13 38,-28c16,-15 40,-33 56,-40c15,-6 27,-16 27,-22c0,-5 6,-10 13,-10c7,0 22,-8 33,-18c10,-9 31,-23 47,-31c15,-8 27,-18 27,-23c0,-4 6,-8 13,-8c7,0 23,-9 35,-20c12,-11 24,-20 27,-20c7,0 96,-59 105,-69c3,-3 15,-12 28,-19c18,-10 22,-10 23,0c0,7 5,3 11,-8c5,-12 21,-27 34,-35c13,-7 24,-16 24,-21c0,-4 9,-8 20,-8c11,0 20,-4 20,-10c0,-5 6,-10 13,-10c7,0 22,-8 33,-18c10,-9 31,-23 46,-31c16,-8 28,-18 28,-23c0,-4 9,-8 20,-8c11,0 20,-4 20,-10c0,-5 6,-10 13,-10c7,0 22,-8 33,-17c36,-32 64,-45 65,-31c0,7 4,3 9,-9c5,-13 16,-23 25,-23c8,0 15,-3 15,-8c0,-4 15,-13 33,-20c58,-24 73,-33 105,-63c17,-16 38,-29 46,-29c9,0 16,-4 16,-10c0,-5 9,-10 20,-10c11,0 20,-4 20,-10c0,-5 6,-10 13,-10c7,0 23,-9 35,-20c12,-11 28,-20 37,-20c8,0 15,-3 15,-7c0,-9 48,-33 65,-33c6,0 17,-9 25,-20c8,-11 22,-20 32,-20c10,0 18,-4 18,-9c0,-16 44,-17 58,-1c11,13 12,12 7,-6c-6,-22 33,-64 60,-64c8,0 15,-4 15,-10c0,-5 9,-10 20,-10c11,0 20,-4 20,-10c0,-5 9,-10 20,-10c11,0 20,-4 20,-10c0,-5 6,-10 13,-10c7,0 23,-9 35,-20c12,-11 28,-20 37,-20c8,0 15,-4 15,-10c0,-5 9,-10 20,-10c11,0 20,-4 20,-10c0,-5 9,-10 20,-10c11,0 20,-4 20,-10c0,-5 9,-10 20,-10c11,0 20,-3 20,-7c0,-5 11,-13 25,-19c18,-9 25,-9 29,0c2,6 5,1 5,-11c1,-16 7,-23 21,-23c11,0 20,-4 20,-10c0,-5 9,-10 20,-10c11,0 20,-4 20,-10c0,-5 9,-10 20,-10c11,0 20,-4 20,-10c0,-5 9,-10 20,-10c11,0 20,-4 20,-10c0,-5 9,-10 20,-10c11,0 20,-4 20,-10c0,-5 9,-10 20,-10c11,0 20,-4 20,-10c0,-5 9,-10 20,-10c11,0 20,-4 20,-10c0,-5 9,-10 20,-10c11,0 20,-4 20,-10c0,-5 7,-10 15,-10c8,0 19,-9 25,-20c6,-12 21,-20 35,-20c14,0 25,-4 25,-10c0,-5 10,-10 23,-10c13,0 33,-9 45,-20c12,-11 28,-20 37,-20c8,0 15,-4 15,-10c0,-5 6,-10 13,-10c18,0 67,-24 67,-32c0,-5 7,-8 15,-8c17,0 56,-20 68,-35c6,-6 10,-6 14,3c2,6 13,12 24,12c10,0 19,5 19,10c0,6 8,10 18,10c10,0 24,9 32,20c8,12 26,20 42,20c15,0 28,5 28,10c0,6 9,10 20,10c11,0 20,5 20,10c0,6 8,10 18,10c10,0 24,9 32,20c8,12 26,20 42,20c15,0 28,5 28,10c0,6 9,10 20,10c11,0 20,5 20,10c0,6 7,10 16,10c18,0 44,23 44,39c0,6 12,8 30,5c19,-4 30,-2 30,5c0,6 9,11 20,11c11,0 20,5 20,10c0,6 9,10 20,10c11,0 20,5 20,10c0,6 9,10 20,10c11,0 20,5 20,10c0,6 9,10 20,10c11,0 20,5 20,10c0,6 9,10 20,10c11,0 20,5 20,10c0,6 9,10 20,10c11,0 20,5 20,10c0,6 9,10 20,10c11,0 20,5 20,10c0,6 9,10 20,10c11,0 20,5 20,10c0,6 9,10 20,10c11,0 20,5 20,10c0,6 7,10 17,10c27,0 93,33 93,47c0,7 6,10 13,7c8,-2 40,11 73,30c32,19 76,43 97,53c20,10 37,23 37,30c0,7 9,17 20,23c15,8 20,8 20,-1c0,-12 91,38 103,57c4,7 23,18 42,24c19,6 35,16 35,21c0,5 5,9 11,9c6,0 37,14 68,32c53,30 54,33 31,40c-21,6 -19,7 11,5c35,-1 129,44 129,63c0,5 10,12 22,16c27,8 80,44 91,61c4,7 14,13 21,13c30,0 76,32 76,53c0,17 2,19 9,8c7,-11 16,-8 44,13c20,15 38,33 41,39c3,8 5,8 5,-1c1,-8 15,-2 38,17c21,17 43,31 50,31c7,0 13,5 13,10c0,6 6,10 13,10c7,0 23,11 35,25c12,14 31,25 42,25c11,0 23,7 26,15c4,8 15,15 25,15c10,0 19,7 19,15c0,8 16,22 35,31c19,9 35,20 35,24c0,5 10,12 23,16c12,3 43,22 68,40c26,19 51,34 57,34c5,0 12,7 16,15c3,8 21,23 41,32c19,9 35,20 35,25c0,4 7,8 15,8c9,0 18,7 21,15c4,8 10,15 15,15c13,0 93,59 102,76c4,8 14,14 22,14c8,0 19,9 25,20c6,11 20,20 30,20c11,0 20,6 20,14c0,8 9,17 19,21c10,3 35,21 56,40c20,19 43,35 50,35c8,0 36,22 63,50c27,27 55,50 61,50c7,0 28,17 49,39c20,21 46,40 57,42c11,2 26,19 34,37c8,17 22,32 30,32c9,0 30,11 46,25c17,14 40,33 53,43c34,25 55,46 71,69c8,12 20,19 26,17c7,-3 28,12 46,33c19,22 54,55 78,74c25,19 71,60 102,92c31,31 62,57 68,57c6,0 11,7 11,15c0,8 6,15 14,15c7,0 16,9 19,21c3,11 15,23 26,26c12,3 21,12 21,19c0,8 6,14 14,14c7,0 16,9 19,20c3,11 16,24 29,29c13,5 39,27 58,50c19,22 41,41 47,41c7,0 19,14 28,30c9,17 20,30 26,30c16,0 34,21 54,63c9,20 21,34 27,31c12,-8 38,15 49,44c5,13 18,26 29,29c11,3 20,12 20,19c0,8 12,24 27,37c47,39 117,111 152,157c19,25 42,52 52,60c9,8 19,28 23,43c4,15 11,25 16,22c6,-4 16,0 23,7c50,53 77,92 77,111c0,12 9,29 20,37c11,8 20,21 21,30c0,10 3,9 9,-5c7,-19 9,-18 19,8c6,15 15,27 21,27c5,0 10,5 10,12c0,11 29,45 83,95c17,17 27,37 27,54c0,21 4,27 15,23c9,-4 18,1 22,12c4,11 13,25 21,33c13,13 12,16 -4,22c-16,6 -14,8 8,8c20,1 29,8 37,31c5,16 16,30 24,30c8,0 17,14 21,31c3,18 10,28 17,24c6,-4 13,2 16,14c3,12 10,21 15,21c5,0 16,16 24,35c8,19 19,35 24,35c5,0 14,18 20,40c6,22 17,40 24,40c8,0 21,11 30,25c9,14 12,25 6,25c-5,0 -9,10 -9,23c1,16 2,18 6,5c5,-22 23,-24 23,-3c0,8 5,15 11,15c5,0 16,15 24,33c8,19 21,39 29,47c9,7 16,17 16,22c0,5 9,22 21,36c19,25 19,27 2,33c-14,5 -12,7 10,13c15,3 27,11 27,16c0,6 14,29 30,52c17,22 30,47 30,53c0,7 6,18 14,24c8,7 18,26 21,42c4,16 10,29 14,29c4,0 18,25 31,55c13,30 27,55 30,55c3,0 16,21 29,48c12,26 29,58 37,72c14,24 40,80 87,180c11,25 27,58 35,74c12,24 12,30 1,37c-10,6 -11,9 -1,9c6,0 12,11 12,25c0,14 5,25 10,25c6,0 10,9 10,20c0,11 5,20 10,20c6,0 10,9 10,20c0,11 5,20 10,20c6,0 10,9 10,20c0,11 5,20 10,20c6,0 10,14 10,30c0,17 5,30 10,30c6,0 10,9 10,20c0,11 5,20 10,20c6,0 10,14 10,30c0,17 5,30 11,30c6,0 9,9 6,20c-3,11 1,27 9,34c8,8 14,26 14,40c0,14 5,26 10,26c6,0 10,9 10,20c0,11 5,20 10,20c6,0 10,16 10,35c0,19 5,35 11,35c7,0 9,9 6,21c-3,12 0,22 9,26c8,3 14,13 14,23c0,11 5,22 10,25c6,3 10,22 10,41c0,19 5,34 10,34c6,0 10,14 10,30c0,17 5,30 10,30c6,0 10,14 10,32c0,17 6,39 13,47c16,19 49,131 52,181c2,19 5,42 8,50c5,14 23,80 46,166c6,23 11,66 11,97c0,32 5,57 11,59c6,2 13,26 15,53c3,49 8,85 20,135c15,68 31,231 49,485c1,22 5,47 9,56c4,9 4,81 1,160c-13,316 -23,744 -30,1299c-3,256 -8,508 -11,560c-12,252 -24,698 -30,1223c-4,318 -11,580 -15,583c-4,2 -8,89 -8,192c-1,195 -7,588 -19,1197l-7,360l-45,3c-24,2 -47,7 -50,12c-6,9 -77,18 -205,26c-44,3 -89,9 -100,14c-25,11 -89,20 -180,26c-38,3 -72,9 -75,13c-3,5 -34,11 -70,15c-138,13 -170,18 -170,25c0,5 -54,14 -120,21c-66,8 -120,17 -120,22c0,4 -16,8 -36,8c-52,0 -164,22 -164,32c0,4 -20,8 -44,8c-24,0 -57,6 -73,14c-33,17 -159,46 -200,46c-16,0 -33,4 -38,9c-6,5 -53,14 -105,20c-52,7 -96,16 -98,22c-2,5 -26,9 -52,9c-27,0 -52,5 -55,10c-3,6 -22,10 -41,10c-19,0 -34,4 -34,8c0,9 -101,32 -138,32c-12,0 -22,5 -22,10c0,6 -18,10 -39,10c-22,0 -43,5 -46,10c-3,6 -22,10 -41,10c-19,0 -34,5 -34,10c0,6 -8,10 -17,10c-31,0 -123,24 -123,32c0,5 -18,8 -40,8c-22,0 -40,5 -40,10c0,6 -13,10 -30,10c-16,0 -30,5 -30,10c0,6 -18,10 -40,10c-22,0 -40,5 -40,10c0,6 -13,10 -30,10c-16,0 -30,5 -30,10c0,6 -16,10 -35,10c-19,0 -35,5 -35,10c0,6 -16,10 -35,10c-19,0 -35,5 -35,10c0,6 -13,10 -30,10c-16,0 -30,5 -30,10c0,6 -13,10 -30,10c-16,0 -30,5 -30,10c0,6 -10,10 -22,10c-25,0 -90,21 -98,32c-3,4 -22,8 -43,10c-20,1 -37,6 -37,10c0,4 -9,8 -20,8c-11,0 -20,5 -20,10c0,6 -13,10 -29,10c-17,0 -33,5 -36,10c-3,6 -17,10 -31,10c-13,0 -24,5 -24,10c0,6 -13,10 -30,10c-16,0 -30,5 -30,10c0,6 -13,10 -30,10c-16,0 -30,5 -30,10c0,6 -9,10 -20,10c-11,0 -20,5 -20,10c0,6 -13,10 -30,10c-16,0 -30,5 -30,10c0,6 -13,10 -30,10c-16,0 -30,5 -30,10c0,6 -9,10 -20,10c-11,0 -20,5 -20,10c0,6 -13,10 -30,10c-16,0 -30,5 -30,10c0,6 -9,10 -20,10c-11,0 -20,5 -20,10c0,16 -32,11 -46,-7c-12,-16 -13,-15 -14,10c0,20 -5,27 -20,27c-11,0 -20,5 -20,10c0,6 -13,10 -30,10c-16,0 -30,5 -30,10c0,6 -15,10 -33,10c-21,0 -36,7 -45,20c-7,11 -23,20 -37,20c-14,0 -25,5 -25,10c0,6 -9,10 -20,10c-11,0 -20,5 -20,10c0,6 -9,10 -19,10c-11,0 -23,5 -26,10c-3,6 -17,10 -31,10c-13,0 -24,5 -24,10c0,6 -9,10 -20,10c-11,0 -20,5 -20,10c0,6 -9,10 -20,10c-11,0 -20,4 -20,9c0,5 -13,11 -29,14c-16,3 -36,13 -44,22c-9,8 -27,15 -41,15c-14,0 -26,5 -26,10c0,6 -9,10 -20,10c-11,0 -20,5 -20,10c0,6 -6,10 -13,10c-18,0 -67,24 -67,33c0,4 -9,7 -20,7c-11,0 -20,5 -20,10c0,6 -9,10 -20,10c-11,0 -20,5 -20,10c0,6 -9,10 -20,10c-11,0 -20,5 -20,10c0,6 -8,10 -18,10c-10,0 -24,9 -32,20c-8,11 -19,20 -24,20c-17,0 -106,43 -106,52c0,4 -9,8 -20,8c-11,0 -20,5 -20,10c0,6 -6,10 -13,10c-7,0 -23,9 -35,20c-12,11 -26,20 -32,20c-10,0 -50,20 -60,30c-3,3 -17,11 -32,19c-16,8 -28,18 -28,23c0,4 -9,8 -20,8c-11,0 -20,5 -20,10c0,6 -6,10 -13,10c-7,0 -23,9 -35,20c-12,11 -28,20 -37,20c-8,0 -15,5 -15,10c0,6 -6,10 -13,10c-7,0 -23,9 -34,20c-12,10 -33,22 -47,26c-14,3 -26,12 -26,19c0,8 -13,16 -30,20c-16,4 -30,12 -30,18c0,18 -48,38 -54,23c-2,-6 -5,-1 -5,12c-1,12 -7,22 -14,22c-7,0 -22,8 -33,18c-10,9 -31,23 -46,31c-16,8 -28,18 -28,23c0,4 -4,8 -10,8c-5,0 -30,16 -56,35c-25,19 -56,38 -70,41c-15,4 -24,13 -24,25c0,10 -6,19 -12,19c-7,0 -31,18 -53,40c-22,21 -45,39 -51,40c-6,0 -29,17 -50,38c-34,31 -76,62 -87,62c-1,0 -48,-46 -105,-103zm55,-932c-7,-13 -14,-20 -15,-14c-2,5 2,16 8,24c18,21 20,18 7,-10zm115,-40c11,-14 24,-25 29,-25c6,0 22,-13 36,-30c17,-20 34,-30 53,-30c23,0 27,-3 23,-20c-3,-11 -1,-20 5,-20c6,0 17,-6 24,-13c7,-7 36,-28 63,-47c28,-19 60,-43 72,-53c12,-11 26,-16 32,-12c6,3 11,-1 11,-9c0,-9 7,-16 16,-16c9,0 25,-11 35,-24c11,-14 41,-32 68,-41c28,-9 51,-23 53,-33c8,-28 171,-122 205,-118c15,2 20,1 11,-1c-25,-6 -22,-20 5,-29c12,-4 24,-10 27,-13c15,-21 85,-51 104,-46c15,5 17,4 7,-3c-10,-7 12,-24 85,-65c155,-86 227,-118 236,-104c5,8 8,6 8,-6c0,-11 21,-27 63,-47c174,-83 256,-120 264,-120c4,0 24,-8 43,-19c19,-10 50,-22 68,-25c17,-4 32,-11 32,-15c0,-4 44,-24 98,-45c53,-21 113,-44 132,-52c43,-20 239,-94 245,-94c3,0 5,7 5,15c0,8 5,15 11,15c6,0 8,-8 5,-18c-5,-15 5,-22 59,-41c35,-13 70,-21 77,-19c7,3 18,-1 23,-7c12,-15 130,-55 161,-55c12,0 24,-4 26,-10c3,-8 59,-26 163,-51c21,-6 44,-14 50,-18c5,-4 55,-20 110,-35c55,-14 120,-33 145,-41c84,-26 319,-85 342,-85c13,0 28,-4 34,-10c5,-5 29,-10 54,-12c25,-2 48,-7 51,-11c6,-8 369,-92 464,-107c28,-4 96,-17 153,-29c56,-11 106,-20 110,-19c4,0 14,-2 22,-5c28,-12 265,-49 304,-48c22,1 42,-3 45,-8c7,-11 412,-71 501,-74c40,-1 71,-8 80,-16c13,-13 15,-12 18,2c2,9 8,17 13,17c13,0 11,-37 -3,-46c-13,-8 -5,-557 27,-1834c3,-124 10,-418 15,-655c6,-236 12,-518 15,-625c2,-107 7,-337 11,-510c3,-173 9,-319 12,-324c3,-6 4,-108 3,-229c-2,-155 1,-223 10,-233c6,-7 8,-22 4,-31c-4,-10 -6,-85 -6,-168c2,-159 -17,-390 -49,-614c-20,-133 -80,-443 -100,-510c-5,-19 -7,-37 -5,-42c3,-4 1,-10 -5,-14c-5,-3 -10,-22 -10,-41c0,-19 -4,-34 -10,-34c-5,0 -10,-6 -10,-13c0,-8 -25,-91 -55,-184c-30,-94 -55,-178 -55,-187c0,-9 -4,-16 -8,-16c-7,0 -28,-52 -38,-95c-1,-5 -12,-31 -24,-58c-11,-26 -18,-52 -15,-57c3,-6 2,-10 -4,-10c-16,0 -53,-92 -40,-100c7,-5 5,-9 -5,-13c-9,-4 -24,-23 -33,-44c-9,-21 -56,-118 -105,-216c-48,-98 -88,-187 -88,-197c0,-11 -6,-20 -13,-20c-8,0 -19,-10 -25,-22c-17,-33 -65,-118 -96,-167c-15,-24 -25,-48 -23,-55c3,-7 -4,-19 -14,-27c-11,-8 -34,-36 -52,-64c-17,-27 -34,-52 -37,-55c-7,-7 -84,-123 -89,-135c-2,-5 -12,-18 -23,-29c-10,-11 -18,-28 -18,-38c0,-10 -4,-18 -9,-18c-9,0 -101,-113 -101,-124c0,-3 -11,-17 -25,-32c-22,-23 -23,-28 -9,-41c18,-18 14,-23 -18,-27c-34,-3 -48,-14 -48,-37c0,-10 -7,-19 -15,-19c-8,0 -15,-7 -15,-15c0,-8 -4,-15 -9,-15c-10,0 -181,-205 -181,-218c0,-5 -7,-13 -16,-16c-10,-4 -13,-13 -9,-26c5,-15 3,-18 -10,-14c-11,4 -28,-7 -53,-37c-20,-23 -52,-56 -70,-73c-22,-20 -30,-36 -26,-48c3,-12 0,-18 -9,-18c-22,0 -97,-70 -97,-91c0,-11 -5,-16 -13,-13c-16,6 -217,-198 -217,-220c0,-9 -4,-17 -10,-17c-5,-1 -15,-2 -21,-3c-6,0 -16,-9 -23,-18c-7,-10 -18,-18 -25,-18c-6,0 -11,-7 -11,-15c0,-8 -6,-15 -13,-15c-8,0 -32,-19 -55,-42c-22,-24 -61,-60 -86,-80c-33,-28 -43,-43 -39,-58c4,-17 0,-20 -24,-20c-31,0 -69,-30 -56,-45c5,-4 2,-5 -6,0c-8,4 -21,-1 -35,-14c-31,-31 -271,-228 -349,-286c-36,-27 -67,-56 -67,-62c0,-7 -7,-13 -15,-13c-9,0 -41,-19 -71,-42c-40,-29 -51,-44 -42,-49c14,-9 5,-12 -24,-10c-11,2 -18,-5 -18,-14c0,-9 -5,-13 -10,-10c-6,4 -23,-4 -39,-17c-15,-13 -38,-30 -50,-38c-11,-8 -21,-20 -21,-27c0,-7 -6,-10 -14,-7c-8,3 -32,-10 -54,-30c-21,-20 -41,-34 -43,-31c-3,2 -18,-7 -34,-20c-25,-21 -28,-26 -15,-35c12,-7 7,-10 -18,-10c-31,0 -77,-25 -112,-60c-8,-8 -22,-16 -30,-18c-8,-2 -16,-8 -18,-13c-2,-5 -10,-9 -18,-9c-8,0 -14,-3 -14,-8c0,-4 -13,-13 -28,-20c-16,-6 -37,-20 -48,-30c-10,-9 -36,-26 -56,-37c-21,-11 -38,-23 -38,-27c0,-5 -4,-8 -10,-8c-16,0 -120,-70 -120,-80c0,-6 -6,-10 -14,-10c-12,0 -49,-19 -121,-63c-11,-7 -41,-27 -68,-44c-26,-18 -52,-33 -57,-33c-6,0 -10,-7 -10,-16c0,-11 -6,-13 -20,-9c-13,4 -23,0 -32,-14c-7,-12 -20,-21 -29,-21c-9,0 -59,-25 -110,-55c-52,-30 -107,-61 -124,-69c-16,-8 -67,-35 -111,-59c-45,-25 -123,-66 -173,-92c-50,-25 -91,-51 -91,-56c0,-5 -5,-9 -12,-9c-7,0 -47,-17 -89,-37c-64,-30 -78,-42 -83,-65c-3,-15 -11,-28 -18,-28c-9,0 -9,3 0,12c7,7 12,18 12,25c0,13 -131,-44 -138,-59c-2,-5 -10,-8 -17,-8c-7,0 -49,-18 -94,-40c-44,-22 -91,-40 -104,-40c-13,0 -48,13 -78,30c-30,16 -62,30 -71,30c-9,0 -21,6 -25,13c-4,8 -62,41 -128,75c-66,33 -176,89 -245,124c-69,35 -127,66 -130,69c-9,10 -228,129 -239,129c-5,0 -16,6 -23,13c-7,7 -60,39 -118,71c-58,33 -160,92 -228,133c-67,40 -124,73 -127,73c-2,0 -31,18 -64,40c-33,22 -73,45 -88,52c-15,7 -30,15 -33,18c-13,16 -150,100 -187,116c-24,10 -43,22 -43,26c0,12 -172,124 -212,138c-21,8 -40,21 -43,29c-6,17 -123,101 -140,101c-6,0 -16,9 -23,20c-7,12 -23,20 -41,20c-21,0 -30,6 -35,22c-9,30 -188,161 -198,145c-6,-9 -8,-9 -8,1c0,14 -36,52 -50,52c-5,0 -10,5 -10,10c0,6 -7,13 -16,17c-9,3 -35,23 -58,44c-22,22 -49,39 -59,39c-11,0 -21,8 -24,18c-2,9 -20,28 -39,42c-20,14 -43,32 -52,41c-42,38 -130,109 -136,109c-4,0 -16,9 -28,20c-12,11 -28,20 -35,20c-7,0 -13,8 -13,19c0,10 -11,26 -23,34c-26,17 -39,29 -174,157c-49,47 -115,111 -148,142c-33,31 -109,109 -169,172c-79,84 -112,113 -119,104c-6,-9 -7,-7 -3,6c7,20 -30,70 -45,61c-4,-3 -10,4 -14,15c-3,11 -11,20 -16,20c-5,0 -9,6 -9,14c0,8 -8,21 -18,28c-9,7 -29,29 -43,48c-43,57 -66,80 -78,80c-6,0 -11,5 -11,10c0,6 -6,10 -14,10c-9,0 -12,7 -9,18c3,11 -7,31 -26,51c-17,18 -31,36 -31,40c0,4 -10,17 -22,29c-31,28 -48,49 -48,59c0,4 -9,19 -20,33c-11,14 -44,58 -72,99c-28,40 -59,76 -69,78c-10,3 -15,11 -13,18c5,11 -78,151 -96,165c-4,3 -15,21 -25,40c-10,19 -21,37 -25,40c-3,3 -19,29 -35,58c-15,28 -32,52 -37,52c-4,0 -8,6 -8,14c0,24 -85,166 -100,167c-10,0 -11,2 -3,5c8,4 1,25 -23,67c-19,34 -51,96 -70,137c-20,41 -40,77 -45,78c-5,2 -9,12 -9,22c0,24 -61,153 -77,163c-7,4 -13,16 -13,27c0,37 -43,132 -64,140c-17,7 -18,9 -4,9c16,1 16,5 -2,47c-21,49 -143,392 -155,434c-4,14 -22,75 -41,135c-18,61 -55,196 -80,300c-26,105 -50,191 -55,193c-4,2 -6,9 -3,16c5,12 -45,288 -66,366c-32,122 -39,283 -45,985c-7,1000 -13,1268 -28,1277c-9,6 -8,8 2,8c12,0 13,108 7,743c-3,408 -9,832 -11,942c-3,110 -7,388 -9,618c-3,230 -8,422 -11,427c-12,20 6,22 375,34c80,3 200,10 268,16c68,5 134,10 148,10c17,0 24,6 24,19c0,11 -6,22 -12,24c-10,4 -10,6 0,6c8,1 16,-8 19,-19c3,-11 13,-20 22,-20c46,-1 291,34 291,41c0,5 12,6 28,3c15,-2 77,5 137,16c61,11 124,22 140,24c96,15 138,24 144,33c3,5 29,10 56,10c52,0 325,58 335,71c3,4 22,8 43,9c21,1 80,13 130,27c51,14 153,41 227,61c74,21 140,40 145,45c6,4 27,10 48,13c21,3 52,13 69,21c17,9 39,16 48,16c16,0 112,30 155,49c11,4 49,17 85,29c36,11 88,29 115,40c28,11 103,40 168,63c65,23 120,46 123,51c3,4 14,8 25,8c10,0 19,5 19,10c0,6 7,10 15,10c8,0 15,6 15,13c0,9 2,9 9,-1c7,-11 11,-11 24,2c8,9 22,16 30,16c21,0 117,41 117,51c0,4 14,10 30,14c17,4 30,11 30,17c0,6 6,8 14,5c19,-8 112,37 120,58c4,12 13,15 27,12c33,-9 619,298 619,324c0,5 7,9 15,9c8,0 15,8 15,18c0,11 3,13 8,5c15,-23 182,95 182,129c0,10 2,10 9,-1c7,-11 13,-10 35,4c14,10 26,24 26,31c0,8 10,14 25,14c16,0 25,6 25,15c0,8 7,15 16,15c17,0 44,23 44,38c0,6 8,8 18,6c9,-3 28,6 42,18c14,13 37,31 53,41c15,10 27,24 27,32c0,8 9,15 19,15c11,0 28,11 39,25c11,14 24,25 28,25c5,0 28,19 50,43c23,23 50,47 60,53c10,6 22,22 25,35c4,13 7,18 8,10c1,-10 12,-4 32,17c17,17 28,36 24,42c-3,5 0,7 9,4c9,-3 21,5 32,21c14,22 23,26 47,21c16,-3 38,-17 49,-31zm-245,-91c-3,-3 -12,-4 -19,-1c-8,3 -5,6 6,6c11,1 17,-2 13,-5zm2600,-200c-3,-3 -12,-4 -19,-1c-8,3 -5,6 6,6c11,1 17,-2 13,-5zm-3507,-438c0,-3 -4,-8 -10,-11c-5,-3 -10,-1 -10,4c0,6 5,11 10,11c6,0 10,-2 10,-4zm-3943,-352c-3,-3 -12,-4 -19,-1c-8,3 -5,6 6,6c11,1 17,-2 13,-5zm9028,-552c-3,-3 -11,0 -18,7c-9,10 -8,11 6,5c10,-3 15,-9 12,-12zm1178,-6152c-3,-11 -7,-20 -9,-20c-2,0 -4,9 -4,20c0,11 4,20 9,20c5,0 7,-9 4,-20zm-8253,-3071c0,-5 -4,-9 -10,-9c-5,0 -10,7 -10,16c0,8 5,12 10,9c6,-3 10,-10 10,-16zm5787,-391c-3,-8 -6,-5 -6,6c-1,11 2,17 5,13c3,-3 4,-12 1,-19z" id="svg_2"/>
   <path d="m6481,-1892c-62,-56 -71,-68 -46,-68c8,0 15,-4 15,-10c0,-10 -21,-14 -48,-11c-18,3 -52,-28 -52,-46c0,-7 -6,-13 -14,-13c-8,0 -16,-12 -18,-27c-2,-14 -8,-28 -15,-30c-7,-3 -9,4 -5,19c5,21 1,19 -41,-14c-26,-21 -66,-53 -89,-72c-50,-39 -336,-236 -343,-236c-7,0 -87,-52 -103,-67c-7,-7 -20,-13 -28,-13c-8,0 -14,-4 -14,-8c0,-4 -16,-14 -35,-21c-19,-7 -35,-16 -35,-20c0,-4 -16,-13 -35,-20c-19,-7 -35,-17 -35,-22c0,-5 -7,-9 -15,-9c-28,0 -115,-50 -115,-66c0,-11 -5,-14 -16,-10c-9,3 -40,-7 -70,-24c-30,-16 -54,-27 -54,-24c0,7 -144,-69 -148,-79c-2,-4 -8,-5 -12,-2c-5,3 -42,-10 -82,-29c-40,-18 -81,-36 -90,-39c-10,-4 -18,-11 -18,-17c0,-5 -10,-10 -21,-10c-33,0 -139,-43 -139,-57c0,-7 -6,-10 -14,-7c-16,6 -238,-72 -247,-87c-3,-5 -18,-10 -35,-12c-42,-5 -107,-27 -119,-41c-5,-6 -21,-12 -35,-13c-14,-1 -47,-8 -75,-16c-27,-9 -98,-30 -157,-48c-79,-23 -108,-36 -108,-48c0,-13 -2,-13 -9,-2c-7,11 -24,10 -97,-10c-49,-12 -90,-27 -92,-31c-2,-4 -16,-8 -32,-8c-42,0 -130,-22 -130,-33c0,-5 -7,-7 -15,-4c-8,4 -38,0 -67,-7c-29,-7 -95,-22 -145,-32c-51,-10 -93,-21 -93,-25c0,-4 -9,-5 -20,-2c-11,3 -28,2 -37,-2c-10,-5 -21,-8 -25,-7c-3,1 -71,-10 -150,-24c-79,-14 -174,-29 -212,-34c-38,-5 -73,-14 -77,-22c-7,-11 -9,-11 -9,1c0,10 -9,12 -34,7c-69,-13 -360,-36 -600,-48l-249,-12l6,-321c4,-176 10,-638 14,-1027c3,-405 10,-708 15,-708c5,0 6,-5 3,-11c-7,-10 -7,-342 -1,-1029c2,-184 4,-497 5,-695l1,-360l36,-210c41,-246 112,-567 126,-576c6,-4 8,-11 5,-16c-10,-16 74,-303 88,-303c8,0 11,-8 8,-19c-7,-26 48,-191 64,-191c9,0 11,-9 7,-30c-4,-18 -2,-30 4,-30c5,0 13,-16 16,-35c9,-48 93,-249 106,-253c6,-2 8,-7 5,-12c-10,-17 198,-450 216,-450c5,0 9,-7 9,-16c0,-15 40,-87 99,-179c14,-22 32,-53 40,-69c8,-16 23,-31 33,-34c19,-5 19,-5 23,-41c1,-14 12,-33 24,-42c11,-9 21,-22 21,-28c0,-6 6,-11 14,-11c9,0 12,-7 9,-20c-3,-11 -1,-20 3,-20c5,0 15,-14 23,-31c8,-18 22,-34 32,-36c11,-3 19,-14 19,-24c0,-10 10,-28 23,-41c13,-13 23,-27 24,-31c1,-8 43,-63 70,-92c7,-8 13,-19 13,-25c0,-8 9,-10 25,-6c23,6 25,3 25,-24c0,-39 77,-141 102,-136c11,2 15,-1 11,-10c-6,-16 38,-73 143,-182c41,-42 74,-79 74,-82c0,-3 18,-24 40,-45c34,-33 42,-37 50,-25c8,12 10,10 10,-10c0,-28 131,-167 148,-156c5,3 12,-3 15,-14c3,-11 19,-28 36,-37c17,-10 34,-26 37,-35c6,-21 79,-80 88,-71c3,3 6,-1 6,-9c0,-16 61,-68 79,-68c6,0 11,-7 11,-15c0,-8 6,-15 14,-15c8,0 17,-7 20,-16c4,-10 13,-13 26,-9c14,5 20,2 20,-9c0,-9 5,-16 10,-16c6,0 10,-7 10,-14c0,-16 59,-66 77,-66c6,0 14,-7 17,-16c4,-9 13,-14 21,-10c8,3 15,1 15,-5c0,-6 12,-23 28,-38c46,-46 230,-181 246,-181c9,0 16,-4 16,-10c0,-5 6,-10 14,-10c8,0 17,-9 21,-19c5,-17 15,-24 43,-33c4,-1 14,-10 22,-19c19,-22 327,-229 340,-229c6,0 11,8 11,18c1,9 4,4 8,-13c5,-24 17,-36 61,-58c30,-15 57,-32 58,-38c4,-11 59,-41 68,-37c3,2 10,-5 15,-14c6,-10 19,-18 29,-18c11,0 20,-5 20,-11c0,-6 9,-9 20,-6c13,3 20,0 20,-9c0,-8 10,-14 25,-14c18,0 25,-5 25,-18c0,-15 45,-48 58,-43c1,1 12,-7 23,-18c12,-11 32,-22 45,-25c14,-4 33,-15 44,-26c23,-23 113,-70 135,-70c8,0 15,-4 15,-9c0,-14 158,-103 170,-96c5,3 10,-1 10,-9c0,-9 9,-16 20,-16c11,0 20,-4 20,-9c0,-5 12,-14 28,-20c15,-6 58,-29 97,-51c62,-35 71,-37 77,-22c5,14 7,13 7,-5c1,-16 22,-33 96,-72c53,-28 107,-51 120,-51c14,0 25,-6 26,-12c0,-18 124,-79 143,-72c10,4 16,1 16,-9c0,-20 37,-32 54,-18c15,13 27,4 19,-15c-3,-8 8,-19 29,-30c33,-15 36,-15 81,6c26,12 47,26 47,32c0,5 6,8 13,6c15,-4 137,53 137,64c0,4 6,8 13,8c23,-1 307,145 307,158c0,6 7,12 15,12c8,0 15,5 15,11c0,6 6,9 14,6c19,-8 87,26 105,51c8,11 20,18 26,15c12,-4 59,18 155,74c19,11 61,35 93,52c33,19 57,40 57,49c0,12 3,13 8,5c6,-9 33,3 100,43c51,31 92,60 92,65c0,5 7,9 15,9c14,0 63,26 75,40c3,4 13,10 24,13c10,4 16,13 12,22c-3,8 -1,17 4,20c5,3 10,-1 12,-10c2,-10 7,-12 18,-5c13,9 13,11 0,20c-12,8 -9,10 12,10c30,0 176,84 185,106c3,8 14,14 24,14c11,0 22,7 25,15c4,8 13,15 20,15c8,0 17,6 20,14c3,8 16,17 30,20c13,4 24,13 24,21c0,8 7,15 16,15c22,0 275,176 309,214c6,7 24,21 42,31c40,25 168,125 210,163c17,16 38,32 47,35c9,4 16,13 16,22c0,8 7,15 16,15c23,0 74,55 74,79c0,23 16,29 23,9c5,-16 57,29 57,49c0,8 6,13 14,11c8,-2 43,24 78,57c36,33 79,72 97,87c74,60 190,180 185,192c-6,16 21,40 36,31c15,-10 82,67 67,78c-8,6 -7,7 4,4c18,-6 79,50 79,71c0,7 6,12 13,12c18,0 89,79 82,91c-4,5 0,9 7,9c8,0 34,23 58,52c25,28 53,59 63,70c9,10 17,22 17,28c0,6 5,10 10,10c6,0 10,13 10,28c0,23 4,28 21,28c23,-1 47,26 189,211c38,50 70,96 70,101c0,5 7,12 15,16c8,3 15,12 15,21c0,8 5,15 10,15c6,0 10,7 10,16c0,9 8,24 19,33c10,9 21,26 25,39c4,12 11,22 16,22c12,0 100,135 100,152c0,7 9,19 20,26c11,7 20,19 20,26c0,8 6,21 13,28c23,22 127,205 127,222c0,9 4,16 9,16c5,0 13,10 17,23c4,12 17,38 30,57c13,19 24,42 24,51c0,10 4,19 9,21c5,2 32,54 61,117c66,146 72,161 60,161c-18,0 -10,18 10,23c11,3 20,14 20,24c0,10 4,23 9,29c15,16 92,236 89,253c-2,9 1,21 8,26c17,15 109,323 100,333c-3,3 -2,10 4,17c5,6 21,69 35,140c29,144 34,174 50,290c2,17 11,80 19,140c25,170 27,388 11,1050c-8,336 -19,819 -25,1075c-5,256 -12,564 -15,685c-3,121 -7,299 -10,395c-3,96 -8,312 -11,480c-10,497 -19,758 -27,766c-4,5 -20,9 -35,10c-15,2 -92,12 -170,24c-79,12 -146,19 -150,16c-3,-3 -10,-2 -16,3c-15,12 -174,34 -187,25c-6,-3 -14,-2 -18,3c-9,14 -242,54 -270,46c-13,-3 -26,-1 -30,6c-5,7 -41,18 -82,26c-41,7 -107,20 -147,29c-40,9 -88,16 -107,16c-18,0 -35,5 -37,10c-2,6 -26,12 -55,14c-29,3 -60,9 -70,14c-30,16 -243,63 -253,57c-6,-3 -10,-2 -10,3c0,12 -105,36 -119,28c-6,-4 -11,-3 -11,3c0,10 -53,28 -100,33c-14,2 -27,6 -30,9c-3,3 -27,11 -55,17c-48,10 -136,38 -330,102c-49,17 -97,30 -106,30c-9,0 -30,7 -45,15c-16,8 -39,15 -51,15c-13,0 -23,5 -23,10c0,6 -7,10 -15,10c-8,0 -15,-4 -15,-10c0,-17 -17,-11 -22,8c-4,13 -33,28 -99,50c-52,17 -115,40 -142,52c-26,12 -52,18 -58,15c-6,-4 -16,0 -22,8c-7,9 -64,36 -127,62c-63,26 -153,64 -198,86c-46,21 -86,39 -88,39c-2,0 -40,18 -85,40c-45,22 -85,37 -90,34c-5,-3 -9,0 -9,5c0,17 -139,83 -161,76c-14,-5 -19,-2 -19,12c0,13 -16,27 -47,43c-27,13 -52,24 -58,25c-5,0 -20,10 -34,23c-13,12 -32,22 -42,22c-11,0 -19,5 -19,10c0,6 -17,18 -37,28c-21,9 -47,25 -57,35c-11,9 -30,17 -42,17c-12,0 -29,11 -37,24c-9,12 -33,31 -54,41c-21,9 -42,22 -48,29c-11,13 -143,106 -150,106c-5,0 -37,26 -60,48c-8,6 -18,12 -24,12c-6,0 -11,4 -11,8c0,8 -100,87 -109,87c-3,0 -17,12 -29,27c-13,15 -30,28 -38,28c-8,0 -41,-24 -73,-52zm404,-258c3,-5 1,-10 -4,-10c-6,0 -11,5 -11,10c0,6 2,10 4,10c3,0 8,-4 11,-10zm720,-400c3,-5 1,-10 -4,-10c-6,0 -11,5 -11,10c0,6 2,10 4,10c3,0 8,-4 11,-10zm545,-250c0,-5 -2,-10 -4,-10c-3,0 -8,5 -11,10c-3,6 -1,10 4,10c6,0 11,-4 11,-10zm-3183,-96c-3,-3 -12,-4 -19,-1c-8,3 -5,6 6,6c11,1 17,-2 13,-5zm5850,-6350c-3,-3 -12,-4 -19,-1c-8,3 -5,6 6,6c11,1 17,-2 13,-5zm-810,-1296c-3,-8 -6,-5 -6,6c-1,11 2,17 5,13c3,-3 4,-12 1,-19zm-5877,-948c0,-5 -8,-10 -17,-10c-15,0 -16,2 -3,10c19,12 20,12 20,0zm637,-522c-3,-7 -5,-2 -5,12c0,14 2,19 5,13c2,-7 2,-19 0,-25z" fill="#575e5f" id="svg_3"/>
  </g>
 </g>
</svg>