<?xml version="1.0" standalone="no"?>
<!DOCTYPE svg PUBLIC "-//W3C//DTD SVG 20010904//EN"
 "http://www.w3.org/TR/2001/REC-SVG-20010904/DTD/svg10.dtd">
<svg version="1.0" xmlns="http://www.w3.org/2000/svg"
 width="1310.000000pt" height="1504.000000pt" viewBox="0 0 1310.000000 1504.000000"
 preserveAspectRatio="xMidYMid meet">

<g transform="translate(0.000000,1504.000000) scale(0.100000,-0.100000)"
fill="#000000" stroke="none">
<path d="M6432 14937 c-56 -56 -102 -108 -102 -115 0 -6 -6 -12 -13 -12 -7 0
-28 -16 -47 -35 -19 -19 -39 -35 -44 -35 -6 -1 -29 -19 -51 -40 -22 -22 -44
-40 -49 -40 -5 0 -26 -17 -47 -37 -20 -21 -43 -39 -51 -41 -7 -2 -22 -12 -34
-23 -11 -10 -24 -19 -29 -19 -4 0 -22 -15 -40 -32 -18 -18 -50 -42 -71 -53
-21 -11 -48 -28 -58 -37 -11 -10 -24 -18 -28 -18 -5 0 -18 -9 -30 -20 -12 -11
-27 -20 -34 -20 -6 0 -14 -7 -18 -15 -3 -8 -12 -12 -21 -9 -8 3 -15 1 -15 -5
0 -6 -12 -17 -27 -24 -16 -6 -37 -20 -47 -29 -11 -10 -26 -18 -33 -18 -7 0
-13 -4 -13 -10 0 -5 -9 -10 -20 -10 -11 0 -20 -4 -20 -8 0 -5 -12 -15 -27 -23
-16 -8 -30 -16 -33 -19 -12 -12 -51 -30 -65 -30 -8 0 -15 -4 -15 -8 0 -5 -12
-15 -27 -23 -16 -8 -30 -16 -33 -19 -12 -12 -51 -30 -65 -30 -8 0 -15 -4 -15
-10 0 -5 -7 -10 -15 -10 -9 0 -25 -9 -37 -20 -12 -11 -28 -20 -35 -20 -7 0
-13 -4 -13 -10 0 -5 -9 -10 -20 -10 -11 0 -20 -4 -20 -10 0 -5 -9 -10 -20 -10
-11 0 -20 -4 -20 -10 0 -5 -9 -10 -19 -10 -24 0 -36 -28 -13 -32 9 -2 -5 -4
-32 -4 -29 -1 -52 -6 -54 -12 -2 -7 -15 -12 -28 -12 -14 0 -34 -9 -46 -20 -12
-11 -30 -20 -40 -20 -10 0 -18 -7 -18 -15 0 -8 5 -15 12 -15 6 0 8 -3 5 -7 -4
-3 -19 0 -34 8 -20 11 -27 11 -30 2 -3 -7 -13 -13 -24 -13 -10 0 -19 -4 -19
-10 0 -5 -7 -10 -15 -10 -9 0 -15 -10 -16 -22 0 -13 -3 -17 -6 -10 -7 17 -43
15 -43 -3 0 -11 -8 -13 -30 -8 -23 4 -30 2 -30 -10 0 -10 -6 -13 -20 -10 -11
3 -20 0 -20 -6 0 -6 -7 -11 -16 -11 -8 0 -22 -6 -30 -14 -7 -8 -32 -17 -54
-21 -22 -4 -40 -11 -40 -16 0 -5 -13 -9 -30 -9 -16 0 -30 -4 -30 -10 0 -5 -9
-10 -20 -10 -11 0 -20 -4 -20 -10 0 -5 -9 -10 -21 -10 -16 0 -19 -5 -15 -22 3
-13 3 -17 0 -10 -7 14 -64 17 -64 2 0 -5 -13 -10 -30 -10 -16 0 -30 -4 -30
-10 0 -5 -9 -10 -20 -10 -11 0 -20 -4 -20 -10 0 -5 -13 -10 -30 -10 -16 0 -30
-4 -30 -10 0 -5 -13 -10 -30 -10 -16 0 -30 -3 -30 -7 0 -12 -51 -33 -77 -33
-13 0 -23 -4 -23 -10 0 -5 -9 -10 -20 -10 -11 0 -20 -7 -20 -15 0 -12 -8 -14
-40 -9 -27 4 -40 3 -40 -5 0 -6 -13 -11 -30 -11 -16 0 -30 -4 -30 -10 0 -5
-19 -10 -42 -10 -24 0 -70 -12 -103 -25 -33 -14 -68 -25 -77 -25 -9 0 -20 -4
-23 -10 -3 -5 -19 -10 -34 -10 -16 0 -34 -7 -41 -15 -7 -8 -23 -15 -36 -15
-13 0 -24 -4 -24 -8 0 -12 -70 -32 -109 -32 -17 0 -31 -4 -31 -10 0 -5 -13
-10 -30 -10 -20 0 -30 -5 -30 -15 0 -11 -7 -14 -25 -9 -17 4 -25 2 -25 -7 0
-11 -3 -11 -11 1 -8 11 -12 12 -16 3 -2 -7 -20 -13 -38 -13 -19 0 -37 -4 -40
-10 -3 -5 -24 -10 -46 -10 -21 0 -39 -4 -39 -9 0 -5 -30 -12 -67 -16 -38 -4
-72 -10 -78 -15 -5 -4 -36 -11 -67 -14 -32 -4 -58 -12 -58 -17 0 -5 -16 -9
-36 -9 -40 0 -121 -17 -146 -31 -10 -5 -29 -9 -43 -9 -14 0 -25 -4 -25 -9 0
-5 -28 -11 -63 -14 -76 -7 -130 -18 -137 -26 -7 -9 -141 -31 -190 -31 -21 0
-41 -4 -44 -8 -5 -8 -117 -24 -261 -37 -27 -2 -93 -11 -145 -19 -52 -8 -123
-15 -157 -15 -34 -1 -63 -6 -65 -11 -2 -6 -37 -11 -83 -11 -44 0 -84 -4 -90
-9 -5 -4 -116 -10 -245 -14 -396 -10 -450 -15 -477 -42 l-22 -22 9 -664 c5
-365 10 -897 10 -1183 0 -286 5 -680 10 -875 5 -195 11 -868 15 -1495 3 -627
8 -1187 11 -1245 3 -58 14 -138 25 -177 10 -40 19 -91 19 -113 0 -22 5 -40 10
-40 6 0 10 -30 10 -69 0 -39 5 -73 10 -76 6 -3 10 -23 10 -44 0 -20 4 -41 9
-47 4 -5 14 -48 21 -96 7 -49 17 -88 22 -88 4 0 8 -18 8 -40 0 -22 5 -40 10
-40 6 0 10 -18 10 -40 0 -22 4 -40 9 -40 9 0 17 -33 27 -117 4 -24 10 -43 15
-43 5 0 9 -18 9 -40 0 -22 5 -40 10 -40 6 0 10 -18 10 -40 0 -22 4 -40 8 -40
4 0 14 -27 21 -60 8 -33 17 -60 22 -60 5 0 9 -18 9 -40 0 -22 5 -40 10 -40 6
0 10 -13 10 -30 0 -16 5 -30 10 -30 6 0 10 -8 10 -18 0 -11 7 -33 16 -50 8
-18 13 -36 9 -42 -3 -5 -1 -10 4 -10 6 0 11 -13 11 -30 0 -16 5 -30 10 -30 6
0 10 -13 10 -30 0 -16 5 -30 10 -30 6 0 10 -13 10 -30 0 -16 5 -30 10 -30 6 0
10 -9 10 -20 0 -11 5 -20 10 -20 6 0 10 -14 10 -31 0 -32 39 -129 52 -129 5 0
8 -13 8 -30 0 -16 5 -30 10 -30 6 0 10 -9 10 -20 0 -13 7 -20 19 -20 11 0 23
-4 26 -10 3 -5 -1 -10 -9 -10 -9 0 -16 -9 -16 -20 0 -11 5 -20 10 -20 6 0 10
-9 10 -20 0 -11 5 -20 10 -20 6 0 10 -9 10 -20 0 -11 5 -20 10 -20 6 0 10 -9
10 -20 0 -11 5 -20 10 -20 6 0 10 -13 10 -30 0 -16 5 -30 10 -30 6 0 10 -9 10
-20 0 -11 5 -20 10 -20 6 0 10 -10 10 -22 0 -13 9 -34 20 -48 11 -14 20 -31
20 -37 0 -7 9 -13 20 -13 22 0 27 -15 8 -24 -10 -5 -10 -7 0 -12 6 -3 12 -14
12 -25 0 -10 5 -19 10 -19 6 0 10 -9 10 -20 0 -11 5 -20 10 -20 6 0 10 -7 10
-15 0 -8 6 -15 14 -15 9 0 12 -8 8 -25 -2 -15 0 -25 7 -25 6 0 11 -9 11 -20 0
-11 5 -20 10 -20 6 0 10 -9 10 -20 0 -11 5 -20 10 -20 6 0 10 -9 10 -20 0 -11
5 -20 10 -20 6 0 10 -9 10 -20 0 -11 5 -20 10 -20 6 0 10 -7 10 -15 0 -9 9
-25 20 -37 11 -12 20 -28 20 -35 0 -7 5 -13 10 -13 6 0 10 -7 10 -15 0 -9 9
-25 20 -37 11 -12 20 -28 20 -35 0 -7 11 -13 25 -13 14 0 25 -4 25 -10 0 -5
-7 -10 -15 -10 -20 0 -19 -7 5 -32 11 -12 20 -28 20 -35 0 -7 5 -13 10 -13 6
0 10 -9 10 -20 0 -11 4 -20 8 -20 5 0 15 -12 23 -27 8 -16 22 -37 31 -47 10
-11 18 -24 18 -28 0 -5 5 -14 11 -21 5 -7 19 -25 29 -42 40 -62 45 -69 63 -89
9 -11 17 -26 17 -33 0 -7 4 -13 8 -13 5 0 15 -12 23 -27 8 -16 26 -41 41 -58
16 -16 28 -36 28 -44 0 -7 6 -11 14 -8 9 4 16 -4 20 -24 3 -17 24 -49 46 -72
22 -23 40 -46 40 -52 1 -5 19 -28 40 -50 22 -22 40 -44 40 -48 0 -4 9 -17 20
-29 11 -12 20 -28 20 -35 0 -7 7 -13 15 -13 8 0 15 -6 15 -13 0 -7 16 -28 35
-47 19 -19 35 -39 35 -46 0 -15 28 -26 42 -17 7 4 9 -1 6 -14 -4 -16 7 -33 43
-69 27 -27 49 -53 49 -58 0 -17 355 -366 368 -361 7 2 12 -3 12 -13 0 -25 86
-108 93 -90 3 8 6 5 6 -8 1 -20 178 -204 197 -204 5 0 32 -22 59 -50 28 -27
55 -49 60 -50 6 0 43 -32 83 -71 52 -51 80 -72 98 -72 15 0 21 -3 15 -6 -11
-7 49 -71 66 -71 5 0 26 -18 48 -40 22 -21 45 -39 51 -40 6 0 29 -18 52 -40
22 -22 44 -40 49 -40 4 0 22 -14 40 -30 18 -17 36 -30 40 -30 4 0 22 -14 40
-30 18 -17 36 -30 41 -30 5 0 17 -9 27 -20 10 -11 24 -20 31 -20 7 0 11 -6 8
-14 -3 -8 5 -17 23 -24 15 -6 39 -21 53 -34 14 -12 37 -29 53 -37 15 -8 27
-18 27 -23 0 -4 6 -8 13 -8 7 0 23 -9 35 -20 12 -11 26 -20 31 -20 6 0 23 -13
38 -28 16 -15 40 -33 56 -40 15 -6 27 -16 27 -22 0 -5 6 -10 13 -10 7 0 22 -8
33 -18 10 -9 31 -23 47 -31 15 -8 27 -18 27 -23 0 -4 6 -8 13 -8 7 0 23 -9 35
-20 12 -11 24 -20 27 -20 7 0 96 -59 105 -69 3 -3 15 -12 28 -19 18 -10 22
-10 23 0 0 7 5 3 11 -8 5 -12 21 -27 34 -35 13 -7 24 -16 24 -21 0 -4 9 -8 20
-8 11 0 20 -4 20 -10 0 -5 6 -10 13 -10 7 0 22 -8 33 -18 10 -9 31 -23 46 -31
16 -8 28 -18 28 -23 0 -4 9 -8 20 -8 11 0 20 -4 20 -10 0 -5 6 -10 13 -10 7 0
22 -8 33 -17 36 -32 64 -45 65 -31 0 7 4 3 9 -9 5 -13 16 -23 25 -23 8 0 15
-3 15 -8 0 -4 15 -13 33 -20 58 -24 73 -33 105 -63 17 -16 38 -29 46 -29 9 0
16 -4 16 -10 0 -5 9 -10 20 -10 11 0 20 -4 20 -10 0 -5 6 -10 13 -10 7 0 23
-9 35 -20 12 -11 28 -20 37 -20 8 0 15 -3 15 -7 0 -9 48 -33 65 -33 6 0 17 -9
25 -20 8 -11 22 -20 32 -20 10 0 18 -4 18 -9 0 -16 44 -17 58 -1 11 13 12 12
7 -6 -6 -22 33 -64 60 -64 8 0 15 -4 15 -10 0 -5 9 -10 20 -10 11 0 20 -4 20
-10 0 -5 9 -10 20 -10 11 0 20 -4 20 -10 0 -5 6 -10 13 -10 7 0 23 -9 35 -20
12 -11 28 -20 37 -20 8 0 15 -4 15 -10 0 -5 9 -10 20 -10 11 0 20 -4 20 -10 0
-5 9 -10 20 -10 11 0 20 -4 20 -10 0 -5 9 -10 20 -10 11 0 20 -3 20 -7 0 -5
11 -13 25 -19 18 -9 25 -9 29 0 2 6 5 1 5 -11 1 -16 7 -23 21 -23 11 0 20 -4
20 -10 0 -5 9 -10 20 -10 11 0 20 -4 20 -10 0 -5 9 -10 20 -10 11 0 20 -4 20
-10 0 -5 9 -10 20 -10 11 0 20 -4 20 -10 0 -5 9 -10 20 -10 11 0 20 -4 20 -10
0 -5 9 -10 20 -10 11 0 20 -4 20 -10 0 -5 9 -10 20 -10 11 0 20 -4 20 -10 0
-5 9 -10 20 -10 11 0 20 -4 20 -10 0 -5 7 -10 15 -10 8 0 19 -9 25 -20 6 -12
21 -20 35 -20 14 0 25 -4 25 -10 0 -5 10 -10 23 -10 13 0 33 -9 45 -20 12 -11
28 -20 37 -20 8 0 15 -4 15 -10 0 -5 6 -10 13 -10 18 0 67 -24 67 -32 0 -5 7
-8 15 -8 17 0 56 -20 68 -35 6 -6 10 -6 14 3 2 6 13 12 24 12 10 0 19 5 19 10
0 6 8 10 18 10 10 0 24 9 32 20 8 12 26 20 42 20 15 0 28 5 28 10 0 6 9 10 20
10 11 0 20 5 20 10 0 6 8 10 18 10 10 0 24 9 32 20 8 12 26 20 42 20 15 0 28
5 28 10 0 6 9 10 20 10 11 0 20 5 20 10 0 6 7 10 16 10 18 0 44 23 44 39 0 6
12 8 30 5 19 -4 30 -2 30 5 0 6 9 11 20 11 11 0 20 5 20 10 0 6 9 10 20 10 11
0 20 5 20 10 0 6 9 10 20 10 11 0 20 5 20 10 0 6 9 10 20 10 11 0 20 5 20 10
0 6 9 10 20 10 11 0 20 5 20 10 0 6 9 10 20 10 11 0 20 5 20 10 0 6 9 10 20
10 11 0 20 5 20 10 0 6 9 10 20 10 11 0 20 5 20 10 0 6 9 10 20 10 11 0 20 5
20 10 0 6 7 10 17 10 27 0 93 33 93 47 0 7 6 10 13 7 8 -2 40 11 73 30 32 19
76 43 97 53 20 10 37 23 37 30 0 7 9 17 20 23 15 8 20 8 20 -1 0 -12 91 38
103 57 4 7 23 18 42 24 19 6 35 16 35 21 0 5 5 9 11 9 6 0 37 14 68 32 53 30
54 33 31 40 -21 6 -19 7 11 5 35 -1 129 44 129 63 0 5 10 12 22 16 27 8 80 44
91 61 4 7 14 13 21 13 30 0 76 32 76 53 0 17 2 19 9 8 7 -11 16 -8 44 13 20
15 38 33 41 39 3 8 5 8 5 -1 1 -8 15 -2 38 17 21 17 43 31 50 31 7 0 13 5 13
10 0 6 6 10 13 10 7 0 23 11 35 25 12 14 31 25 42 25 11 0 23 7 26 15 4 8 15
15 25 15 10 0 19 7 19 15 0 8 16 22 35 31 19 9 35 20 35 24 0 5 10 12 23 16
12 3 43 22 68 40 26 19 51 34 57 34 5 0 12 7 16 15 3 8 21 23 41 32 19 9 35
20 35 25 0 4 7 8 15 8 9 0 18 7 21 15 4 8 10 15 15 15 13 0 93 59 102 76 4 8
14 14 22 14 8 0 19 9 25 20 6 11 20 20 30 20 11 0 20 6 20 14 0 8 9 17 19 21
10 3 35 21 56 40 20 19 43 35 50 35 8 0 36 22 63 50 27 27 55 50 61 50 7 0 28
17 49 39 20 21 46 40 57 42 11 2 26 19 34 37 8 17 22 32 30 32 9 0 30 11 46
25 17 14 40 33 53 43 34 25 55 46 71 69 8 12 20 19 26 17 7 -3 28 12 46 33 19
22 54 55 78 74 25 19 71 60 102 92 31 31 62 57 68 57 6 0 11 7 11 15 0 8 6 15
14 15 7 0 16 9 19 21 3 11 15 23 26 26 12 3 21 12 21 19 0 8 6 14 14 14 7 0
16 9 19 20 3 11 16 24 29 29 13 5 39 27 58 50 19 22 41 41 47 41 7 0 19 14 28
30 9 17 20 30 26 30 16 0 34 21 54 63 9 20 21 34 27 31 12 -8 38 15 49 44 5
13 18 26 29 29 11 3 20 12 20 19 0 8 12 24 27 37 47 39 117 111 152 157 19 25
42 52 52 60 9 8 19 28 23 43 4 15 11 25 16 22 6 -4 16 0 23 7 50 53 77 92 77
111 0 12 9 29 20 37 11 8 20 21 21 30 0 10 3 9 9 -5 7 -19 9 -18 19 8 6 15 15
27 21 27 5 0 10 5 10 12 0 11 29 45 83 95 17 17 27 37 27 54 0 21 4 27 15 23
9 -4 18 1 22 12 4 11 13 25 21 33 13 13 12 16 -4 22 -16 6 -14 8 8 8 20 1 29
8 37 31 5 16 16 30 24 30 8 0 17 14 21 31 3 18 10 28 17 24 6 -4 13 2 16 14 3
12 10 21 15 21 5 0 16 16 24 35 8 19 19 35 24 35 5 0 14 18 20 40 6 22 17 40
24 40 8 0 21 11 30 25 9 14 12 25 6 25 -5 0 -9 10 -9 23 1 16 2 18 6 5 5 -22
23 -24 23 -3 0 8 5 15 11 15 5 0 16 15 24 33 8 19 21 39 29 47 9 7 16 17 16
22 0 5 9 22 21 36 19 25 19 27 2 33 -14 5 -12 7 10 13 15 3 27 11 27 16 0 6
14 29 30 52 17 22 30 47 30 53 0 7 6 18 14 24 8 7 18 26 21 42 4 16 10 29 14
29 4 0 18 25 31 55 13 30 27 55 30 55 3 0 16 21 29 48 12 26 29 58 37 72 14
24 40 80 87 180 11 25 27 58 35 74 12 24 12 30 1 37 -10 6 -11 9 -1 9 6 0 12
11 12 25 0 14 5 25 10 25 6 0 10 9 10 20 0 11 5 20 10 20 6 0 10 9 10 20 0 11
5 20 10 20 6 0 10 9 10 20 0 11 5 20 10 20 6 0 10 14 10 30 0 17 5 30 10 30 6
0 10 9 10 20 0 11 5 20 10 20 6 0 10 14 10 30 0 17 5 30 11 30 6 0 9 9 6 20
-3 11 1 27 9 34 8 8 14 26 14 40 0 14 5 26 10 26 6 0 10 9 10 20 0 11 5 20 10
20 6 0 10 16 10 35 0 19 5 35 11 35 7 0 9 9 6 21 -3 12 0 22 9 26 8 3 14 13
14 23 0 11 5 22 10 25 6 3 10 22 10 41 0 19 5 34 10 34 6 0 10 14 10 30 0 17
5 30 10 30 6 0 10 14 10 32 0 17 6 39 13 47 16 19 49 131 52 181 2 19 5 42 8
50 5 14 23 80 46 166 6 23 11 66 11 97 0 32 5 57 11 59 6 2 13 26 15 53 3 49
8 85 20 135 15 68 31 231 49 485 1 22 5 47 9 56 4 9 4 81 1 160 -13 316 -23
744 -30 1299 -3 256 -8 508 -11 560 -12 252 -24 698 -30 1223 -4 318 -11 580
-15 583 -4 2 -8 89 -8 192 -1 195 -7 588 -19 1197 l-7 360 -45 3 c-24 2 -47 7
-50 12 -6 9 -77 18 -205 26 -44 3 -89 9 -100 14 -25 11 -89 20 -180 26 -38 3
-72 9 -75 13 -3 5 -34 11 -70 15 -138 13 -170 18 -170 25 0 5 -54 14 -120 21
-66 8 -120 17 -120 22 0 4 -16 8 -36 8 -52 0 -164 22 -164 32 0 4 -20 8 -44 8
-24 0 -57 6 -73 14 -33 17 -159 46 -200 46 -16 0 -33 4 -38 9 -6 5 -53 14
-105 20 -52 7 -96 16 -98 22 -2 5 -26 9 -52 9 -27 0 -52 5 -55 10 -3 6 -22 10
-41 10 -19 0 -34 4 -34 8 0 9 -101 32 -138 32 -12 0 -22 5 -22 10 0 6 -18 10
-39 10 -22 0 -43 5 -46 10 -3 6 -22 10 -41 10 -19 0 -34 5 -34 10 0 6 -8 10
-17 10 -31 0 -123 24 -123 32 0 5 -18 8 -40 8 -22 0 -40 5 -40 10 0 6 -13 10
-30 10 -16 0 -30 5 -30 10 0 6 -18 10 -40 10 -22 0 -40 5 -40 10 0 6 -13 10
-30 10 -16 0 -30 5 -30 10 0 6 -16 10 -35 10 -19 0 -35 5 -35 10 0 6 -16 10
-35 10 -19 0 -35 5 -35 10 0 6 -13 10 -30 10 -16 0 -30 5 -30 10 0 6 -13 10
-30 10 -16 0 -30 5 -30 10 0 6 -10 10 -22 10 -25 0 -90 21 -98 32 -3 4 -22 8
-43 10 -20 1 -37 6 -37 10 0 4 -9 8 -20 8 -11 0 -20 5 -20 10 0 6 -13 10 -29
10 -17 0 -33 5 -36 10 -3 6 -17 10 -31 10 -13 0 -24 5 -24 10 0 6 -13 10 -30
10 -16 0 -30 5 -30 10 0 6 -13 10 -30 10 -16 0 -30 5 -30 10 0 6 -9 10 -20 10
-11 0 -20 5 -20 10 0 6 -13 10 -30 10 -16 0 -30 5 -30 10 0 6 -13 10 -30 10
-16 0 -30 5 -30 10 0 6 -9 10 -20 10 -11 0 -20 5 -20 10 0 6 -13 10 -30 10
-16 0 -30 5 -30 10 0 6 -9 10 -20 10 -11 0 -20 5 -20 10 0 16 -32 11 -46 -7
-12 -16 -13 -15 -14 10 0 20 -5 27 -20 27 -11 0 -20 5 -20 10 0 6 -13 10 -30
10 -16 0 -30 5 -30 10 0 6 -15 10 -33 10 -21 0 -36 7 -45 20 -7 11 -23 20 -37
20 -14 0 -25 5 -25 10 0 6 -9 10 -20 10 -11 0 -20 5 -20 10 0 6 -9 10 -19 10
-11 0 -23 5 -26 10 -3 6 -17 10 -31 10 -13 0 -24 5 -24 10 0 6 -9 10 -20 10
-11 0 -20 5 -20 10 0 6 -9 10 -20 10 -11 0 -20 4 -20 9 0 5 -13 11 -29 14 -16
3 -36 13 -44 22 -9 8 -27 15 -41 15 -14 0 -26 5 -26 10 0 6 -9 10 -20 10 -11
0 -20 5 -20 10 0 6 -6 10 -13 10 -18 0 -67 24 -67 33 0 4 -9 7 -20 7 -11 0
-20 5 -20 10 0 6 -9 10 -20 10 -11 0 -20 5 -20 10 0 6 -9 10 -20 10 -11 0 -20
5 -20 10 0 6 -8 10 -18 10 -10 0 -24 9 -32 20 -8 11 -19 20 -24 20 -17 0 -106
43 -106 52 0 4 -9 8 -20 8 -11 0 -20 5 -20 10 0 6 -6 10 -13 10 -7 0 -23 9
-35 20 -12 11 -26 20 -32 20 -10 0 -50 20 -60 30 -3 3 -17 11 -32 19 -16 8
-28 18 -28 23 0 4 -9 8 -20 8 -11 0 -20 5 -20 10 0 6 -6 10 -13 10 -7 0 -23 9
-35 20 -12 11 -28 20 -37 20 -8 0 -15 5 -15 10 0 6 -6 10 -13 10 -7 0 -23 9
-34 20 -12 10 -33 22 -47 26 -14 3 -26 12 -26 19 0 8 -13 16 -30 20 -16 4 -30
12 -30 18 0 18 -48 38 -54 23 -2 -6 -5 -1 -5 12 -1 12 -7 22 -14 22 -7 0 -22
8 -33 18 -10 9 -31 23 -46 31 -16 8 -28 18 -28 23 0 4 -4 8 -10 8 -5 0 -30 16
-56 35 -25 19 -56 38 -70 41 -15 4 -24 13 -24 25 0 10 -6 19 -12 19 -7 0 -31
18 -53 40 -22 21 -45 39 -51 40 -6 0 -29 17 -50 38 -34 31 -76 62 -87 62 -1 0
-48 -46 -105 -103z m55 -932 c-7 -13 -14 -20 -15 -14 -2 5 2 16 8 24 18 21 20
18 7 -10z m115 -40 c11 -14 24 -25 29 -25 6 0 22 -13 36 -30 17 -20 34 -30 53
-30 23 0 27 -3 23 -20 -3 -11 -1 -20 5 -20 6 0 17 -6 24 -13 7 -7 36 -28 63
-47 28 -19 60 -43 72 -53 12 -11 26 -16 32 -12 6 3 11 -1 11 -9 0 -9 7 -16 16
-16 9 0 25 -11 35 -24 11 -14 41 -32 68 -41 28 -9 51 -23 53 -33 8 -28 171
-122 205 -118 15 2 20 1 11 -1 -25 -6 -22 -20 5 -29 12 -4 24 -10 27 -13 15
-21 85 -51 104 -46 15 5 17 4 7 -3 -10 -7 12 -24 85 -65 155 -86 227 -118 236
-104 5 8 8 6 8 -6 0 -11 21 -27 63 -47 174 -83 256 -120 264 -120 4 0 24 -8
43 -19 19 -10 50 -22 68 -25 17 -4 32 -11 32 -15 0 -4 44 -24 98 -45 53 -21
113 -44 132 -52 43 -20 239 -94 245 -94 3 0 5 7 5 15 0 8 5 15 11 15 6 0 8 -8
5 -18 -5 -15 5 -22 59 -41 35 -13 70 -21 77 -19 7 3 18 -1 23 -7 12 -15 130
-55 161 -55 12 0 24 -4 26 -10 3 -8 59 -26 163 -51 21 -6 44 -14 50 -18 5 -4
55 -20 110 -35 55 -14 120 -33 145 -41 84 -26 319 -85 342 -85 13 0 28 -4 34
-10 5 -5 29 -10 54 -12 25 -2 48 -7 51 -11 6 -8 369 -92 464 -107 28 -4 96
-17 153 -29 56 -11 106 -20 110 -19 4 0 14 -2 22 -5 28 -12 265 -49 304 -48
22 1 42 -3 45 -8 7 -11 412 -71 501 -74 40 -1 71 -8 80 -16 13 -13 15 -12 18
2 2 9 8 17 13 17 13 0 11 -37 -3 -46 -13 -8 -5 -557 27 -1834 3 -124 10 -418
15 -655 6 -236 12 -518 15 -625 2 -107 7 -337 11 -510 3 -173 9 -319 12 -324
3 -6 4 -108 3 -229 -2 -155 1 -223 10 -233 6 -7 8 -22 4 -31 -4 -10 -6 -85 -6
-168 2 -159 -17 -390 -49 -614 -20 -133 -80 -443 -100 -510 -5 -19 -7 -37 -5
-42 3 -4 1 -10 -5 -14 -5 -3 -10 -22 -10 -41 0 -19 -4 -34 -10 -34 -5 0 -10
-6 -10 -13 0 -8 -25 -91 -55 -184 -30 -94 -55 -178 -55 -187 0 -9 -4 -16 -8
-16 -7 0 -28 -52 -38 -95 -1 -5 -12 -31 -24 -58 -11 -26 -18 -52 -15 -57 3 -6
2 -10 -4 -10 -16 0 -53 -92 -40 -100 7 -5 5 -9 -5 -13 -9 -4 -24 -23 -33 -44
-9 -21 -56 -118 -105 -216 -48 -98 -88 -187 -88 -197 0 -11 -6 -20 -13 -20 -8
0 -19 -10 -25 -22 -17 -33 -65 -118 -96 -167 -15 -24 -25 -48 -23 -55 3 -7 -4
-19 -14 -27 -11 -8 -34 -36 -52 -64 -17 -27 -34 -52 -37 -55 -7 -7 -84 -123
-89 -135 -2 -5 -12 -18 -23 -29 -10 -11 -18 -28 -18 -38 0 -10 -4 -18 -9 -18
-9 0 -101 -113 -101 -124 0 -3 -11 -17 -25 -32 -22 -23 -23 -28 -9 -41 18 -18
14 -23 -18 -27 -34 -3 -48 -14 -48 -37 0 -10 -7 -19 -15 -19 -8 0 -15 -7 -15
-15 0 -8 -4 -15 -9 -15 -10 0 -181 -205 -181 -218 0 -5 -7 -13 -16 -16 -10 -4
-13 -13 -9 -26 5 -15 3 -18 -10 -14 -11 4 -28 -7 -53 -37 -20 -23 -52 -56 -70
-73 -22 -20 -30 -36 -26 -48 3 -12 0 -18 -9 -18 -22 0 -97 -70 -97 -91 0 -11
-5 -16 -13 -13 -16 6 -217 -198 -217 -220 0 -9 -4 -17 -10 -17 -5 -1 -15 -2
-21 -3 -6 0 -16 -9 -23 -18 -7 -10 -18 -18 -25 -18 -6 0 -11 -7 -11 -15 0 -8
-6 -15 -13 -15 -8 0 -32 -19 -55 -42 -22 -24 -61 -60 -86 -80 -33 -28 -43 -43
-39 -58 4 -17 0 -20 -24 -20 -31 0 -69 -30 -56 -45 5 -4 2 -5 -6 0 -8 4 -21
-1 -35 -14 -31 -31 -271 -228 -349 -286 -36 -27 -67 -56 -67 -62 0 -7 -7 -13
-15 -13 -9 0 -41 -19 -71 -42 -40 -29 -51 -44 -42 -49 14 -9 5 -12 -24 -10
-11 2 -18 -5 -18 -14 0 -9 -5 -13 -10 -10 -6 4 -23 -4 -39 -17 -15 -13 -38
-30 -50 -38 -11 -8 -21 -20 -21 -27 0 -7 -6 -10 -14 -7 -8 3 -32 -10 -54 -30
-21 -20 -41 -34 -43 -31 -3 2 -18 -7 -34 -20 -25 -21 -28 -26 -15 -35 12 -7 7
-10 -18 -10 -31 0 -77 -25 -112 -60 -8 -8 -22 -16 -30 -18 -8 -2 -16 -8 -18
-13 -2 -5 -10 -9 -18 -9 -8 0 -14 -3 -14 -8 0 -4 -13 -13 -28 -20 -16 -6 -37
-20 -48 -30 -10 -9 -36 -26 -56 -37 -21 -11 -38 -23 -38 -27 0 -5 -4 -8 -10
-8 -16 0 -120 -70 -120 -80 0 -6 -6 -10 -14 -10 -12 0 -49 -19 -121 -63 -11
-7 -41 -27 -68 -44 -26 -18 -52 -33 -57 -33 -6 0 -10 -7 -10 -16 0 -11 -6 -13
-20 -9 -13 4 -23 0 -32 -14 -7 -12 -20 -21 -29 -21 -9 0 -59 -25 -110 -55 -52
-30 -107 -61 -124 -69 -16 -8 -67 -35 -111 -59 -45 -25 -123 -66 -173 -92 -50
-25 -91 -51 -91 -56 0 -5 -5 -9 -12 -9 -7 0 -47 -17 -89 -37 -64 -30 -78 -42
-83 -65 -3 -15 -11 -28 -18 -28 -9 0 -9 3 0 12 7 7 12 18 12 25 0 13 -131 -44
-138 -59 -2 -5 -10 -8 -17 -8 -7 0 -49 -18 -94 -40 -44 -22 -91 -40 -104 -40
-13 0 -48 13 -78 30 -30 16 -62 30 -71 30 -9 0 -21 6 -25 13 -4 8 -62 41 -128
75 -66 33 -176 89 -245 124 -69 35 -127 66 -130 69 -9 10 -228 129 -239 129
-5 0 -16 6 -23 13 -7 7 -60 39 -118 71 -58 33 -160 92 -228 133 -67 40 -124
73 -127 73 -2 0 -31 18 -64 40 -33 22 -73 45 -88 52 -15 7 -30 15 -33 18 -13
16 -150 100 -187 116 -24 10 -43 22 -43 26 0 12 -172 124 -212 138 -21 8 -40
21 -43 29 -6 17 -123 101 -140 101 -6 0 -16 9 -23 20 -7 12 -23 20 -41 20 -21
0 -30 6 -35 22 -9 30 -188 161 -198 145 -6 -9 -8 -9 -8 1 0 14 -36 52 -50 52
-5 0 -10 5 -10 10 0 6 -7 13 -16 17 -9 3 -35 23 -58 44 -22 22 -49 39 -59 39
-11 0 -21 8 -24 18 -2 9 -20 28 -39 42 -20 14 -43 32 -52 41 -42 38 -130 109
-136 109 -4 0 -16 9 -28 20 -12 11 -28 20 -35 20 -7 0 -13 8 -13 19 0 10 -11
26 -23 34 -26 17 -39 29 -174 157 -49 47 -115 111 -148 142 -33 31 -109 109
-169 172 -79 84 -112 113 -119 104 -6 -9 -7 -7 -3 6 7 20 -30 70 -45 61 -4 -3
-10 4 -14 15 -3 11 -11 20 -16 20 -5 0 -9 6 -9 14 0 8 -8 21 -18 28 -9 7 -29
29 -43 48 -43 57 -66 80 -78 80 -6 0 -11 5 -11 10 0 6 -6 10 -14 10 -9 0 -12
7 -9 18 3 11 -7 31 -26 51 -17 18 -31 36 -31 40 0 4 -10 17 -22 29 -31 28 -48
49 -48 59 0 4 -9 19 -20 33 -11 14 -44 58 -72 99 -28 40 -59 76 -69 78 -10 3
-15 11 -13 18 5 11 -78 151 -96 165 -4 3 -15 21 -25 40 -10 19 -21 37 -25 40
-3 3 -19 29 -35 58 -15 28 -32 52 -37 52 -4 0 -8 6 -8 14 0 24 -85 166 -100
167 -10 0 -11 2 -3 5 8 4 1 25 -23 67 -19 34 -51 96 -70 137 -20 41 -40 77
-45 78 -5 2 -9 12 -9 22 0 24 -61 153 -77 163 -7 4 -13 16 -13 27 0 37 -43
132 -64 140 -17 7 -18 9 -4 9 16 1 16 5 -2 47 -21 49 -143 392 -155 434 -4 14
-22 75 -41 135 -18 61 -55 196 -80 300 -26 105 -50 191 -55 193 -4 2 -6 9 -3
16 5 12 -45 288 -66 366 -32 122 -39 283 -45 985 -7 1000 -13 1268 -28 1277
-9 6 -8 8 2 8 12 0 13 108 7 743 -3 408 -9 832 -11 942 -3 110 -7 388 -9 618
-3 230 -8 422 -11 427 -12 20 6 22 375 34 80 3 200 10 268 16 68 5 134 10 148
10 17 0 24 6 24 19 0 11 -6 22 -12 24 -10 4 -10 6 0 6 8 1 16 -8 19 -19 3 -11
13 -20 22 -20 46 -1 291 34 291 41 0 5 12 6 28 3 15 -2 77 5 137 16 61 11 124
22 140 24 96 15 138 24 144 33 3 5 29 10 56 10 52 0 325 58 335 71 3 4 22 8
43 9 21 1 80 13 130 27 51 14 153 41 227 61 74 21 140 40 145 45 6 4 27 10 48
13 21 3 52 13 69 21 17 9 39 16 48 16 16 0 112 30 155 49 11 4 49 17 85 29 36
11 88 29 115 40 28 11 103 40 168 63 65 23 120 46 123 51 3 4 14 8 25 8 10 0
19 5 19 10 0 6 7 10 15 10 8 0 15 6 15 13 0 9 2 9 9 -1 7 -11 11 -11 24 2 8 9
22 16 30 16 21 0 117 41 117 51 0 4 14 10 30 14 17 4 30 11 30 17 0 6 6 8 14
5 19 -8 112 37 120 58 4 12 13 15 27 12 33 -9 619 298 619 324 0 5 7 9 15 9 8
0 15 8 15 18 0 11 3 13 8 5 15 -23 182 95 182 129 0 10 2 10 9 -1 7 -11 13
-10 35 4 14 10 26 24 26 31 0 8 10 14 25 14 16 0 25 6 25 15 0 8 7 15 16 15
17 0 44 23 44 38 0 6 8 8 18 6 9 -3 28 6 42 18 14 13 37 31 53 41 15 10 27 24
27 32 0 8 9 15 19 15 11 0 28 11 39 25 11 14 24 25 28 25 5 0 28 19 50 43 23
23 50 47 60 53 10 6 22 22 25 35 4 13 7 18 8 10 1 -10 12 -4 32 17 17 17 28
36 24 42 -3 5 0 7 9 4 9 -3 21 5 32 21 14 22 23 26 47 21 16 -3 38 -17 49 -31z
m-245 -91 c-3 -3 -12 -4 -19 -1 -8 3 -5 6 6 6 11 1 17 -2 13 -5z m2600 -200
c-3 -3 -12 -4 -19 -1 -8 3 -5 6 6 6 11 1 17 -2 13 -5z m-3507 -438 c0 -3 -4
-8 -10 -11 -5 -3 -10 -1 -10 4 0 6 5 11 10 11 6 0 10 -2 10 -4z m-3943 -352
c-3 -3 -12 -4 -19 -1 -8 3 -5 6 6 6 11 1 17 -2 13 -5z m9028 -552 c-3 -3 -11
0 -18 7 -9 10 -8 11 6 5 10 -3 15 -9 12 -12z m1178 -6152 c-3 -11 -7 -20 -9
-20 -2 0 -4 9 -4 20 0 11 4 20 9 20 5 0 7 -9 4 -20z m-8253 -3071 c0 -5 -4 -9
-10 -9 -5 0 -10 7 -10 16 0 8 5 12 10 9 6 -3 10 -10 10 -16z m5787 -391 c-3
-8 -6 -5 -6 6 -1 11 2 17 5 13 3 -3 4 -12 1 -19z"/>
<path d="M6481 13148 c-62 -56 -71 -68 -46 -68 8 0 15 -4 15 -10 0 -10 -21
-14 -48 -11 -18 3 -52 -28 -52 -46 0 -7 -6 -13 -14 -13 -8 0 -16 -12 -18 -27
-2 -14 -8 -28 -15 -30 -7 -3 -9 4 -5 19 5 21 1 19 -41 -14 -26 -21 -66 -53
-89 -72 -50 -39 -336 -236 -343 -236 -7 0 -87 -52 -103 -67 -7 -7 -20 -13 -28
-13 -8 0 -14 -4 -14 -8 0 -4 -16 -14 -35 -21 -19 -7 -35 -16 -35 -20 0 -4 -16
-13 -35 -20 -19 -7 -35 -17 -35 -22 0 -5 -7 -9 -15 -9 -28 0 -115 -50 -115
-66 0 -11 -5 -14 -16 -10 -9 3 -40 -7 -70 -24 -30 -16 -54 -27 -54 -24 0 7
-144 -69 -148 -79 -2 -4 -8 -5 -12 -2 -5 3 -42 -10 -82 -29 -40 -18 -81 -36
-90 -39 -10 -4 -18 -11 -18 -17 0 -5 -10 -10 -21 -10 -33 0 -139 -43 -139 -57
0 -7 -6 -10 -14 -7 -16 6 -238 -72 -247 -87 -3 -5 -18 -10 -35 -12 -42 -5
-107 -27 -119 -41 -5 -6 -21 -12 -35 -13 -14 -1 -47 -8 -75 -16 -27 -9 -98
-30 -157 -48 -79 -23 -108 -36 -108 -48 0 -13 -2 -13 -9 -2 -7 11 -24 10 -97
-10 -49 -12 -90 -27 -92 -31 -2 -4 -16 -8 -32 -8 -42 0 -130 -22 -130 -33 0
-5 -7 -7 -15 -4 -8 4 -38 0 -67 -7 -29 -7 -95 -22 -145 -32 -51 -10 -93 -21
-93 -25 0 -4 -9 -5 -20 -2 -11 3 -28 2 -37 -2 -10 -5 -21 -8 -25 -7 -3 1 -71
-10 -150 -24 -79 -14 -174 -29 -212 -34 -38 -5 -73 -14 -77 -22 -7 -11 -9 -11
-9 1 0 10 -9 12 -34 7 -69 -13 -360 -36 -600 -48 l-249 -12 6 -321 c4 -176 10
-638 14 -1027 3 -405 10 -708 15 -708 5 0 6 -5 3 -11 -7 -10 -7 -342 -1 -1029
2 -184 4 -497 5 -695 l1 -360 36 -210 c41 -246 112 -567 126 -576 6 -4 8 -11
5 -16 -10 -16 74 -303 88 -303 8 0 11 -8 8 -19 -7 -26 48 -191 64 -191 9 0 11
-9 7 -30 -4 -18 -2 -30 4 -30 5 0 13 -16 16 -35 9 -48 93 -249 106 -253 6 -2
8 -7 5 -12 -10 -17 198 -450 216 -450 5 0 9 -7 9 -16 0 -15 40 -87 99 -179 14
-22 32 -53 40 -69 8 -16 23 -31 33 -34 19 -5 19 -5 23 -41 1 -14 12 -33 24
-42 11 -9 21 -22 21 -28 0 -6 6 -11 14 -11 9 0 12 -7 9 -20 -3 -11 -1 -20 3
-20 5 0 15 -14 23 -31 8 -18 22 -34 32 -36 11 -3 19 -14 19 -24 0 -10 10 -28
23 -41 13 -13 23 -27 24 -31 1 -8 43 -63 70 -92 7 -8 13 -19 13 -25 0 -8 9
-10 25 -6 23 6 25 3 25 -24 0 -39 77 -141 102 -136 11 2 15 -1 11 -10 -6 -16
38 -73 143 -182 41 -42 74 -79 74 -82 0 -3 18 -24 40 -45 34 -33 42 -37 50
-25 8 12 10 10 10 -10 0 -28 131 -167 148 -156 5 3 12 -3 15 -14 3 -11 19 -28
36 -37 17 -10 34 -26 37 -35 6 -21 79 -80 88 -71 3 3 6 -1 6 -9 0 -16 61 -68
79 -68 6 0 11 -7 11 -15 0 -8 6 -15 14 -15 8 0 17 -7 20 -16 4 -10 13 -13 26
-9 14 5 20 2 20 -9 0 -9 5 -16 10 -16 6 0 10 -7 10 -14 0 -16 59 -66 77 -66 6
0 14 -7 17 -16 4 -9 13 -14 21 -10 8 3 15 1 15 -5 0 -6 12 -23 28 -38 46 -46
230 -181 246 -181 9 0 16 -4 16 -10 0 -5 6 -10 14 -10 8 0 17 -9 21 -19 5 -17
15 -24 43 -33 4 -1 14 -10 22 -19 19 -22 327 -229 340 -229 6 0 11 8 11 18 1
9 4 4 8 -13 5 -24 17 -36 61 -58 30 -15 57 -32 58 -38 4 -11 59 -41 68 -37 3
2 10 -5 15 -14 6 -10 19 -18 29 -18 11 0 20 -5 20 -11 0 -6 9 -9 20 -6 13 3
20 0 20 -9 0 -8 10 -14 25 -14 18 0 25 -5 25 -18 0 -15 45 -48 58 -43 1 1 12
-7 23 -18 12 -11 32 -22 45 -25 14 -4 33 -15 44 -26 23 -23 113 -70 135 -70 8
0 15 -4 15 -9 0 -14 158 -103 170 -96 5 3 10 -1 10 -9 0 -9 9 -16 20 -16 11 0
20 -4 20 -9 0 -5 12 -14 28 -20 15 -6 58 -29 97 -51 62 -35 71 -37 77 -22 5
14 7 13 7 -5 1 -16 22 -33 96 -72 53 -28 107 -51 120 -51 14 0 25 -6 26 -12 0
-18 124 -79 143 -72 10 4 16 1 16 -9 0 -20 37 -32 54 -18 15 13 27 4 19 -15
-3 -8 8 -19 29 -30 33 -15 36 -15 81 6 26 12 47 26 47 32 0 5 6 8 13 6 15 -4
137 53 137 64 0 4 6 8 13 8 23 -1 307 145 307 158 0 6 7 12 15 12 8 0 15 5 15
11 0 6 6 9 14 6 19 -8 87 26 105 51 8 11 20 18 26 15 12 -4 59 18 155 74 19
11 61 35 93 52 33 19 57 40 57 49 0 12 3 13 8 5 6 -9 33 3 100 43 51 31 92 60
92 65 0 5 7 9 15 9 14 0 63 26 75 40 3 4 13 10 24 13 10 4 16 13 12 22 -3 8
-1 17 4 20 5 3 10 -1 12 -10 2 -10 7 -12 18 -5 13 9 13 11 0 20 -12 8 -9 10
12 10 30 0 176 84 185 106 3 8 14 14 24 14 11 0 22 7 25 15 4 8 13 15 20 15 8
0 17 6 20 14 3 8 16 17 30 20 13 4 24 13 24 21 0 8 7 15 16 15 22 0 275 176
309 214 6 7 24 21 42 31 40 25 168 125 210 163 17 16 38 32 47 35 9 4 16 13
16 22 0 8 7 15 16 15 23 0 74 55 74 79 0 23 16 29 23 9 5 -16 57 29 57 49 0 8
6 13 14 11 8 -2 43 24 78 57 36 33 79 72 97 87 74 60 190 180 185 192 -6 16
21 40 36 31 15 -10 82 67 67 78 -8 6 -7 7 4 4 18 -6 79 50 79 71 0 7 6 12 13
12 18 0 89 79 82 91 -4 5 0 9 7 9 8 0 34 23 58 52 25 28 53 59 63 70 9 10 17
22 17 28 0 6 5 10 10 10 6 0 10 13 10 28 0 23 4 28 21 28 23 -1 47 26 189 211
38 50 70 96 70 101 0 5 7 12 15 16 8 3 15 12 15 21 0 8 5 15 10 15 6 0 10 7
10 16 0 9 8 24 19 33 10 9 21 26 25 39 4 12 11 22 16 22 12 0 100 135 100 152
0 7 9 19 20 26 11 7 20 19 20 26 0 8 6 21 13 28 23 22 127 205 127 222 0 9 4
16 9 16 5 0 13 10 17 23 4 12 17 38 30 57 13 19 24 42 24 51 0 10 4 19 9 21 5
2 32 54 61 117 66 146 72 161 60 161 -18 0 -10 18 10 23 11 3 20 14 20 24 0
10 4 23 9 29 15 16 92 236 89 253 -2 9 1 21 8 26 17 15 109 323 100 333 -3 3
-2 10 4 17 5 6 21 69 35 140 29 144 34 174 50 290 2 17 11 80 19 140 25 170
27 388 11 1050 -8 336 -19 819 -25 1075 -5 256 -12 564 -15 685 -3 121 -7 299
-10 395 -3 96 -8 312 -11 480 -10 497 -19 758 -27 766 -4 5 -20 9 -35 10 -15
2 -92 12 -170 24 -79 12 -146 19 -150 16 -3 -3 -10 -2 -16 3 -15 12 -174 34
-187 25 -6 -3 -14 -2 -18 3 -9 14 -242 54 -270 46 -13 -3 -26 -1 -30 6 -5 7
-41 18 -82 26 -41 7 -107 20 -147 29 -40 9 -88 16 -107 16 -18 0 -35 5 -37 10
-2 6 -26 12 -55 14 -29 3 -60 9 -70 14 -30 16 -243 63 -253 57 -6 -3 -10 -2
-10 3 0 12 -105 36 -119 28 -6 -4 -11 -3 -11 3 0 10 -53 28 -100 33 -14 2 -27
6 -30 9 -3 3 -27 11 -55 17 -48 10 -136 38 -330 102 -49 17 -97 30 -106 30 -9
0 -30 7 -45 15 -16 8 -39 15 -51 15 -13 0 -23 5 -23 10 0 6 -7 10 -15 10 -8 0
-15 -4 -15 -10 0 -17 -17 -11 -22 8 -4 13 -33 28 -99 50 -52 17 -115 40 -142
52 -26 12 -52 18 -58 15 -6 -4 -16 0 -22 8 -7 9 -64 36 -127 62 -63 26 -153
64 -198 86 -46 21 -86 39 -88 39 -2 0 -40 18 -85 40 -45 22 -85 37 -90 34 -5
-3 -9 0 -9 5 0 17 -139 83 -161 76 -14 -5 -19 -2 -19 12 0 13 -16 27 -47 43
-27 13 -52 24 -58 25 -5 0 -20 10 -34 23 -13 12 -32 22 -42 22 -11 0 -19 5
-19 10 0 6 -17 18 -37 28 -21 9 -47 25 -57 35 -11 9 -30 17 -42 17 -12 0 -29
11 -37 24 -9 12 -33 31 -54 41 -21 9 -42 22 -48 29 -11 13 -143 106 -150 106
-5 0 -37 26 -60 48 -8 6 -18 12 -24 12 -6 0 -11 4 -11 8 0 8 -100 87 -109 87
-3 0 -17 12 -29 27 -13 15 -30 28 -38 28 -8 0 -41 -24 -73 -52z m404 -258 c3
-5 1 -10 -4 -10 -6 0 -11 5 -11 10 0 6 2 10 4 10 3 0 8 -4 11 -10z m720 -400
c3 -5 1 -10 -4 -10 -6 0 -11 5 -11 10 0 6 2 10 4 10 3 0 8 -4 11 -10z m545
-250 c0 -5 -2 -10 -4 -10 -3 0 -8 5 -11 10 -3 6 -1 10 4 10 6 0 11 -4 11 -10z
m-3183 -96 c-3 -3 -12 -4 -19 -1 -8 3 -5 6 6 6 11 1 17 -2 13 -5z m5850 -6350
c-3 -3 -12 -4 -19 -1 -8 3 -5 6 6 6 11 1 17 -2 13 -5z m-810 -1296 c-3 -8 -6
-5 -6 6 -1 11 2 17 5 13 3 -3 4 -12 1 -19z m-5877 -948 c0 -5 -8 -10 -17 -10
-15 0 -16 2 -3 10 19 12 20 12 20 0z m637 -522 c-3 -7 -5 -2 -5 12 0 14 2 19
5 13 2 -7 2 -19 0 -25z"/>
</g>
</svg>
